<svg xmlns="http://www.w3.org/2000/svg" width="128" height="128" viewBox="0 0 128 128">
  <title>3D FILE</title>
  <g>
    <path d="M104.671,43.25v58.838A6.912,6.912,0,0,1,97.759,109H45.583a6.913,6.913,0,0,1-6.912-6.912V97.17h38.49a3.26,3.26,0,0,0,3.26-3.26V64.59a3.259,3.259,0,0,0-3.26-3.26H38.671V25.912A6.913,6.913,0,0,1,45.583,19H80.421Z" fill="#fcbc40"/>
    <path d="M87.333,43.25h17.338L80.421,19V36.338A6.913,6.913,0,0,0,87.333,43.25Z" fill="#fff69a"/>
    <rect x="23.331" y="61.33" width="57.09" height="35.84" rx="3.26" fill="#d9176c"/>
    <path d="M51.876,81.5a1.748,1.748,0,0,1-.8-.195L40.456,75.819a1.749,1.749,0,0,1,0-3.11l10.618-5.482a1.749,1.749,0,0,1,1.605,0L63.3,72.709a1.749,1.749,0,0,1,0,3.11L52.68,81.3A1.742,1.742,0,0,1,51.876,81.5Zm-6.8-7.233,6.8,3.513,6.8-3.513-6.8-3.512Z" fill="#fff"/>
    <path d="M51.876,91.468a1.75,1.75,0,0,1-1.75-1.75V79.747a1.751,1.751,0,0,1,.947-1.555l10.619-5.483a1.757,1.757,0,0,1,1.653.025,1.816,1.816,0,0,1,.935,1.55v9.932a1.75,1.75,0,0,1-.9,1.53l-10.7,5.527A1.752,1.752,0,0,1,51.876,91.468Zm1.75-10.655v6.032l7.154-3.693V77.119Z" fill="#fff"/>
    <path d="M51.876,91.468a1.751,1.751,0,0,1-.8-.2L40.456,85.791a1.813,1.813,0,0,1-.983-1.575V74.284a1.75,1.75,0,0,1,.909-1.535,1.821,1.821,0,0,1,1.679-.04l10.618,5.482a1.751,1.751,0,0,1,.947,1.556v9.971a1.748,1.748,0,0,1-1.75,1.75Zm-8.9-8.317,7.153,3.694-.014-6.04-7.139-3.686Z" fill="#fff"/>
  </g>
</svg>
