<svg xmlns="http://www.w3.org/2000/svg" width="128" height="128" viewBox="0 0 128 128">
  <title>3D SCANNER</title>
  <g>
    <path d="M26.8,97.7H101.2a7.8,7.8,0,0,1,7.8,7.8V109a0,0,0,0,1,0,0H19a0,0,0,0,1,0,0v-3.5A7.8,7.8,0,0,1,26.8,97.7Z" fill="#e87524"/>
    <path d="M36.814,89.27H91.186A4.017,4.017,0,0,1,95.2,93.287v4.451a0,0,0,0,1,0,0H32.8a0,0,0,0,1,0,0V93.287A4.017,4.017,0,0,1,36.814,89.27Z" fill="#fcbc40"/>
    <polygon points="88.234 37.964 66.195 49.343 64 50.476 61.805 49.343 39.766 37.964 64 25.451 88.234 37.964" fill="#fcbc40"/>
    <polygon points="88.315 38.009 88.315 60.677 88.234 60.722 64 73.235 64 50.476 66.195 49.343 88.234 37.964 88.315 38.009" fill="#d9176c"/>
    <polygon points="64 50.476 64 73.235 39.766 60.722 39.685 60.677 39.685 38.009 39.766 37.964 61.805 49.343 64 50.476" fill="#35b0cb"/>
    <g>
      <path d="M24.347,20.75h2.587a1.75,1.75,0,0,0,0-3.5H24.347a7.107,7.107,0,0,0-7.1,7.1V75.53a7.108,7.108,0,0,0,7.1,7.1h2.587a1.75,1.75,0,0,0,0-3.5H24.347a3.6,3.6,0,0,1-3.6-3.6V24.348A3.6,3.6,0,0,1,24.347,20.75Z" fill="#d9176c"/>
      <path d="M103.652,17.25h-2.588a1.75,1.75,0,0,0,0,3.5h2.588a3.6,3.6,0,0,1,3.6,3.6V75.53a3.6,3.6,0,0,1-3.6,3.6h-2.588a1.75,1.75,0,0,0,0,3.5h2.588a7.107,7.107,0,0,0,7.1-7.1V24.348A7.106,7.106,0,0,0,103.652,17.25Z" fill="#d9176c"/>
    </g>
  </g>
</svg>
