<?xml version="1.0" encoding="UTF-8"?>
<svg xmlns="http://www.w3.org/2000/svg" xmlns:xlink="http://www.w3.org/1999/xlink" width="90px" height="90px" viewBox="0 0 90 90" version="1.1">
<g id="surface1">
<path style=" stroke:none;fill-rule:nonzero;fill:rgb(52.54902%,71.372549%,23.137255%);fill-opacity:1;" d="M 85.78125 87.1875 L 2.8125 87.1875 L 14.0625 71.71875 L 30.9375 71.71875 L 32.542969 68.90625 L 36.5625 61.875 L 54.84375 61.875 L 58.042969 67.5 L 59.644531 70.3125 L 67.5 70.3125 L 73.125 77.34375 L 78.75 77.34375 Z M 85.78125 87.1875 "/>
<path style=" stroke:none;fill-rule:nonzero;fill:rgb(16.862745%,29.803922%,45.098039%);fill-opacity:1;" d="M 16.875 66.09375 L 14.0625 66.09375 C 12.507812 66.09375 11.25 67.351562 11.25 68.90625 C 11.25 70.460938 12.507812 71.71875 14.0625 71.71875 L 23.90625 71.71875 L 26.71875 66.09375 Z M 16.875 66.09375 "/>
<path style=" stroke:none;fill-rule:nonzero;fill:rgb(99.215686%,78.431373%,63.529412%);fill-opacity:1;" d="M 18.28125 35.15625 L 25.3125 35.15625 L 25.3125 40.78125 L 18.28125 40.78125 Z M 18.28125 35.15625 "/>
<path style=" stroke:none;fill-rule:nonzero;fill:rgb(99.215686%,78.431373%,63.529412%);fill-opacity:1;" d="M 43.59375 23.90625 L 32.34375 23.90625 L 32.34375 11.25 C 32.34375 8.921875 34.234375 7.03125 36.5625 7.03125 L 40.414062 7.03125 C 42.296875 7.03125 43.949219 8.28125 44.46875 10.089844 L 46.40625 16.875 L 43.59375 16.875 Z M 43.59375 23.90625 "/>
<path style=" stroke:none;fill-rule:nonzero;fill:rgb(19.607843%,33.72549%,50.196078%);fill-opacity:1;" d="M 46.40625 4.21875 L 35.15625 4.21875 C 33.601562 4.21875 32.34375 5.476562 32.34375 7.03125 L 32.34375 12.65625 L 36.5625 9.84375 L 40.78125 9.84375 C 43.886719 9.84375 46.40625 7.324219 46.40625 4.21875 Z M 46.40625 4.21875 "/>
<path style=" stroke:none;fill-rule:nonzero;fill:rgb(77.647059%,86.27451%,22.745098%);fill-opacity:1;" d="M 61.875 4.21875 L 61.875 15.46875 L 78.75 9.84375 Z M 61.875 4.21875 "/>
<path style=" stroke:none;fill-rule:nonzero;fill:rgb(87.45098%,87.45098%,86.666667%);fill-opacity:1;" d="M 53.777344 28.125 L 50.796875 25.140625 C 50.003906 24.351562 48.929688 23.90625 47.8125 23.90625 L 27.996094 23.90625 C 27.164062 23.90625 26.347656 24.152344 25.65625 24.613281 L 20.160156 28.277344 C 18.984375 29.0625 18.28125 30.378906 18.28125 31.789062 L 18.28125 35.15625 L 25.3125 35.15625 L 25.3125 32.34375 L 30.9375 29.53125 L 30.9375 40.78125 L 45 40.78125 L 45 29.53125 L 49.390625 33.921875 C 50.179688 34.710938 51.253906 35.15625 52.371094 35.15625 L 59.0625 35.15625 L 59.0625 28.125 Z M 53.777344 28.125 "/>
<path style=" stroke:none;fill-rule:nonzero;fill:rgb(99.215686%,78.431373%,63.529412%);fill-opacity:1;" d="M 59.0625 28.125 L 64.6875 28.125 L 64.6875 35.15625 L 59.0625 35.15625 Z M 59.0625 28.125 "/>
<path style=" stroke:none;fill-rule:nonzero;fill:rgb(21.568627%,36.862745%,55.294118%);fill-opacity:1;" d="M 52.03125 40.78125 L 30.9375 40.78125 L 16.875 66.09375 L 26.71875 66.09375 L 36.5625 49.21875 L 47.8125 49.21875 L 47.8125 56.25 L 56.25 56.25 L 56.25 45 C 56.25 42.671875 54.359375 40.78125 52.03125 40.78125 Z M 52.03125 40.78125 "/>
<path style=" stroke:none;fill-rule:nonzero;fill:rgb(16.862745%,29.803922%,45.098039%);fill-opacity:1;" d="M 47.8125 56.25 L 47.8125 61.875 L 57.65625 61.875 C 59.210938 61.875 60.46875 60.617188 60.46875 59.0625 C 60.46875 57.507812 59.210938 56.25 57.65625 56.25 Z M 47.8125 56.25 "/>
<path style=" stroke:none;fill-rule:nonzero;fill:rgb(45.098039%,58.039216%,24.705882%);fill-opacity:1;" d="M 12.65625 40.78125 L 30.9375 40.78125 L 30.9375 52.03125 L 12.65625 52.03125 Z M 12.65625 40.78125 "/>
<path style=" stroke:none;fill-rule:nonzero;fill:rgb(49.411765%,61.568627%,30.196078%);fill-opacity:1;" d="M 12.65625 40.78125 L 12.65625 45 L 20.398438 46.289062 C 20.863281 46.367188 21.328125 46.40625 21.796875 46.40625 C 22.265625 46.40625 22.730469 46.367188 23.195312 46.289062 L 30.9375 45 L 30.9375 40.78125 Z M 12.65625 40.78125 "/>
<path style=" stroke:none;fill-rule:nonzero;fill:rgb(0%,0%,0%);fill-opacity:1;" d="M 3.949219 88.015625 L 14.777344 73.125 L 35.765625 73.125 L 38.296875 77.34375 L 33.75 77.34375 C 33.257812 77.34375 32.796875 77.601562 32.542969 78.027344 L 31.265625 80.15625 L 18.28125 80.15625 C 17.839844 80.15625 17.421875 80.363281 17.15625 80.71875 L 12.9375 86.34375 L 15.1875 88.03125 L 18.984375 82.96875 L 29.578125 82.96875 L 28.324219 85.058594 L 30.738281 86.503906 L 34.546875 80.15625 L 44.296875 80.15625 L 48.09375 85.21875 L 50.34375 83.53125 L 46.125 77.90625 C 45.859375 77.550781 45.441406 77.34375 45 77.34375 L 41.578125 77.34375 L 37.769531 70.996094 C 37.515625 70.570312 37.054688 70.3125 36.5625 70.3125 L 33.359375 70.3125 L 37.378906 63.28125 L 54.027344 63.28125 L 57.226562 68.90625 L 52.03125 68.90625 L 52.03125 71.71875 L 66.824219 71.71875 L 72.027344 78.222656 C 72.292969 78.554688 72.699219 78.75 73.125 78.75 L 78.027344 78.75 L 84.636719 88.003906 L 86.925781 86.371094 L 79.894531 76.527344 C 79.628906 76.15625 79.203125 75.9375 78.75 75.9375 L 73.800781 75.9375 L 68.597656 69.433594 C 68.332031 69.101562 67.925781 68.90625 67.5 68.90625 L 63.28125 68.90625 L 63.28125 36.5625 L 64.6875 36.5625 C 65.464844 36.5625 66.09375 35.933594 66.09375 35.15625 L 66.09375 28.125 C 66.09375 27.347656 65.464844 26.71875 64.6875 26.71875 L 63.28125 26.71875 L 63.28125 16.480469 L 79.195312 11.179688 C 79.769531 10.984375 80.15625 10.449219 80.15625 9.84375 C 80.15625 9.238281 79.769531 8.703125 79.195312 8.507812 L 62.320312 2.882812 C 61.890625 2.742188 61.417969 2.8125 61.054688 3.078125 C 60.6875 3.34375 60.46875 3.765625 60.46875 4.21875 L 60.46875 26.71875 L 54.359375 26.71875 L 51.789062 24.148438 C 50.738281 23.089844 49.304688 22.496094 47.8125 22.5 L 45 22.5 L 45 18.28125 L 46.40625 18.28125 C 46.847656 18.28125 47.261719 18.074219 47.527344 17.722656 C 47.792969 17.371094 47.878906 16.914062 47.757812 16.488281 L 45.820312 9.703125 C 45.777344 9.554688 45.726562 9.40625 45.671875 9.265625 C 47.039062 7.941406 47.8125 6.121094 47.8125 4.21875 C 47.8125 3.441406 47.183594 2.8125 46.40625 2.8125 L 35.15625 2.8125 C 32.828125 2.816406 30.941406 4.703125 30.9375 7.03125 L 30.9375 22.5 L 27.996094 22.5 C 26.886719 22.5 25.800781 22.828125 24.875 23.445312 L 23.125 24.609375 L 24.6875 26.953125 L 26.4375 25.785156 C 26.898438 25.476562 27.441406 25.3125 27.996094 25.3125 L 36.5625 25.3125 L 36.5625 36.5625 L 39.375 36.5625 L 39.375 25.3125 L 47.8125 25.3125 C 48.558594 25.308594 49.273438 25.605469 49.800781 26.136719 L 52.785156 29.121094 C 53.046875 29.382812 53.40625 29.53125 53.777344 29.53125 L 57.65625 29.53125 L 57.65625 33.75 L 52.371094 33.75 C 51.625 33.753906 50.910156 33.457031 50.382812 32.925781 L 45.996094 28.535156 C 45.59375 28.132812 44.988281 28.015625 44.460938 28.230469 C 43.9375 28.449219 43.59375 28.960938 43.59375 29.53125 L 43.59375 39.375 L 32.34375 39.375 L 32.34375 29.53125 C 32.34375 29.042969 32.089844 28.589844 31.675781 28.335938 C 31.261719 28.078125 30.746094 28.054688 30.308594 28.273438 L 24.683594 31.085938 C 24.207031 31.324219 23.90625 31.8125 23.90625 32.34375 L 23.90625 33.75 L 19.6875 33.75 L 19.6875 31.789062 C 19.6875 30.847656 20.15625 29.96875 20.941406 29.449219 L 21.875 28.828125 L 20.3125 26.484375 L 19.378906 27.109375 C 17.8125 28.152344 16.871094 29.90625 16.875 31.789062 L 16.875 39.375 L 12.65625 39.375 C 11.878906 39.375 11.25 40.003906 11.25 40.78125 L 11.25 52.03125 C 11.25 52.808594 11.878906 53.4375 12.65625 53.4375 L 30.9375 53.4375 C 31.714844 53.4375 32.34375 52.808594 32.34375 52.03125 L 32.34375 42.1875 L 52.03125 42.1875 C 53.582031 42.1875 54.84375 43.449219 54.84375 45 L 54.84375 54.84375 L 49.21875 54.84375 L 49.21875 49.21875 C 49.21875 48.441406 48.589844 47.8125 47.8125 47.8125 L 36.5625 47.8125 C 36.0625 47.8125 35.601562 48.078125 35.347656 48.511719 L 25.910156 64.6875 L 19.265625 64.6875 L 23.730469 56.652344 L 21.273438 55.285156 L 16.046875 64.6875 L 14.0625 64.6875 C 12.1875 64.6875 10.539062 65.921875 10.011719 67.71875 C 9.484375 69.515625 10.207031 71.449219 11.789062 72.457031 L 1.675781 86.359375 Z M 63.28125 6.171875 L 74.304688 9.84375 L 63.28125 13.519531 Z M 43.59375 15.46875 C 42.816406 15.46875 42.1875 16.097656 42.1875 16.875 L 42.1875 18.183594 C 41.042969 18.027344 39.929688 17.6875 38.894531 17.171875 L 38.597656 17.023438 L 37.339844 19.539062 L 37.636719 19.6875 C 39.0625 20.398438 40.605469 20.847656 42.1875 21.015625 L 42.1875 22.5 L 33.75 22.5 L 33.75 13.410156 L 36.988281 11.25 L 40.78125 11.25 C 41.609375 11.25 42.433594 11.105469 43.210938 10.816406 L 44.542969 15.46875 Z M 40.78125 8.4375 L 36.5625 8.4375 C 36.285156 8.4375 36.011719 8.519531 35.78125 8.671875 L 33.75 10.027344 L 33.75 7.03125 C 33.75 6.253906 34.378906 5.625 35.15625 5.625 L 44.757812 5.625 C 44.160156 7.308594 42.570312 8.433594 40.78125 8.4375 Z M 19.6875 36.5625 L 23.90625 36.5625 L 23.90625 39.375 L 19.6875 39.375 Z M 29.53125 50.625 L 14.0625 50.625 L 14.0625 46.660156 L 20.167969 47.675781 C 21.246094 47.859375 22.347656 47.859375 23.425781 47.675781 L 29.53125 46.660156 Z M 29.53125 43.808594 L 22.960938 44.902344 C 22.191406 45.03125 21.402344 45.03125 20.632812 44.902344 L 14.0625 43.808594 L 14.0625 42.1875 L 29.53125 42.1875 Z M 29.53125 39.375 L 26.71875 39.375 L 26.71875 33.210938 L 29.53125 31.804688 Z M 60.46875 68.90625 L 60.460938 68.90625 L 57.261719 63.28125 L 57.65625 63.28125 C 58.695312 63.28125 59.695312 62.898438 60.46875 62.203125 Z M 60.46875 29.53125 L 63.28125 29.53125 L 63.28125 33.75 L 60.46875 33.75 Z M 52.03125 39.375 L 46.40625 39.375 L 46.40625 32.925781 L 48.394531 34.914062 C 49.449219 35.972656 50.878906 36.566406 52.371094 36.5625 L 60.46875 36.5625 L 60.46875 55.921875 C 59.695312 55.226562 58.695312 54.84375 57.65625 54.84375 L 57.65625 45 C 57.652344 41.894531 55.136719 39.378906 52.03125 39.375 Z M 49.21875 57.65625 L 57.65625 57.65625 C 58.433594 57.65625 59.0625 58.285156 59.0625 59.0625 C 59.0625 59.839844 58.433594 60.46875 57.65625 60.46875 L 49.21875 60.46875 Z M 37.371094 50.625 L 46.40625 50.625 L 46.40625 60.46875 L 36.5625 60.46875 C 36.058594 60.46875 35.59375 60.738281 35.339844 61.175781 L 30.121094 70.3125 L 26.179688 70.3125 Z M 14.0625 67.5 L 24.445312 67.5 L 23.039062 70.3125 L 14.0625 70.3125 C 13.285156 70.3125 12.65625 69.683594 12.65625 68.90625 C 12.65625 68.128906 13.285156 67.5 14.0625 67.5 Z M 56.953125 82.96875 L 53.15625 88.03125 L 50.90625 86.34375 L 55.125 80.71875 C 55.390625 80.363281 55.808594 80.15625 56.25 80.15625 L 66.09375 80.15625 C 66.535156 80.15625 66.953125 80.363281 67.21875 80.71875 L 71.4375 86.34375 L 69.1875 88.03125 L 65.390625 82.96875 Z M 36.5625 12.65625 L 39.375 12.65625 L 39.375 15.46875 L 36.5625 15.46875 Z M 36.5625 12.65625 "/>
</g>
</svg>
