<svg xmlns="http://www.w3.org/2000/svg" width="128" height="128" viewBox="0 0 128 128">
  <title>BOX</title>
  <g>
    <polygon points="106.37 40.883 67.825 60.633 64 62.608 60.175 60.633 21.771 40.804 64 19 106.37 40.883" fill="#fff69a"/>
    <polygon points="91.246 48.632 80.545 54.115 38.275 32.29 48.933 26.79 91.246 48.632" fill="#7fc9c8"/>
    <polygon points="106.37 40.883 106.37 87.117 106.229 87.196 64 109 64 62.608 106.37 40.883" fill="#e87524"/>
    <polygon points="64 62.608 64 109 21.771 87.196 21.63 87.117 21.63 40.883 21.771 40.804 60.175 60.633 64 62.608" fill="#fcbc40"/>
    <polygon points="80.36 73.152 91.246 67.231 91.246 48.634 80.545 54.115 80.36 73.152" fill="#2d76bb"/>
  </g>
</svg>
