<svg xmlns="http://www.w3.org/2000/svg" width="128" height="128" viewBox="0 0 128 128">
  <title>CONCEPT</title>
  <g>
    <path d="M93.384,48.344A29.386,29.386,0,0,0,62.1,19.02C48.027,19.9,35.381,32.708,34.656,46.79a29.274,29.274,0,0,0,7.279,20.951A16.065,16.065,0,0,1,46.078,78.33v.8a2.578,2.578,0,0,0,2.577,2.578h30.69a2.578,2.578,0,0,0,2.577-2.578v-.016a17.709,17.709,0,0,1,4.323-11.578A29.251,29.251,0,0,0,93.384,48.344Z" fill="#ffd782"/>
    <g>
      <path d="M78.87,47.264l-2.138-.386a13.256,13.256,0,0,0-.581-1.4L77.393,43.7a2.852,2.852,0,0,0-.327-3.646l-1.782-1.783a2.854,2.854,0,0,0-3.646-.326l-1.787,1.242a13.256,13.256,0,0,0-1.4-.581l-.386-2.14a2.853,2.853,0,0,0-2.809-2.346H62.74a2.853,2.853,0,0,0-2.809,2.347L59.545,38.6a13.256,13.256,0,0,0-1.4.581l-1.787-1.241a2.853,2.853,0,0,0-3.646.326l-1.782,1.782a2.853,2.853,0,0,0-.327,3.647l1.242,1.786a13.256,13.256,0,0,0-.581,1.4l-2.138.386a2.852,2.852,0,0,0-2.349,2.809v2.52A2.852,2.852,0,0,0,49.129,55.4l2.139.386a13.256,13.256,0,0,0,.581,1.4l-1.242,1.787a2.851,2.851,0,0,0,.327,3.646L52.716,64.4a2.849,2.849,0,0,0,3.646.327l1.787-1.241a13.465,13.465,0,0,0,1.4.58l.386,2.141a2.853,2.853,0,0,0,2.809,2.346h2.52A2.853,2.853,0,0,0,68.069,66.2l.386-2.139a13.465,13.465,0,0,0,1.4-.58l1.787,1.241a2.85,2.85,0,0,0,3.646-.327l1.782-1.781a2.853,2.853,0,0,0,.327-3.647l-1.242-1.787a13.256,13.256,0,0,0,.581-1.4L78.87,55.4a2.852,2.852,0,0,0,2.349-2.809v-2.52A2.852,2.852,0,0,0,78.87,47.264Zm-1.151,4.79-2.66.479a1.751,1.751,0,0,0-1.385,1.288A9.915,9.915,0,0,1,72.6,56.412a1.747,1.747,0,0,0,.068,1.889l1.544,2.223-1.019,1.019L70.969,60a1.751,1.751,0,0,0-1.89-.068,9.942,9.942,0,0,1-2.592,1.076A1.754,1.754,0,0,0,65.2,62.392l-.479,2.66H63.279l-.479-2.66a1.754,1.754,0,0,0-1.287-1.385,9.942,9.942,0,0,1-2.592-1.076,1.751,1.751,0,0,0-1.89.068l-2.222,1.544L53.79,60.524,55.334,58.3a1.747,1.747,0,0,0,.068-1.889,9.915,9.915,0,0,1-1.076-2.591,1.751,1.751,0,0,0-1.385-1.288l-2.66-.479V50.613l2.66-.48a1.748,1.748,0,0,0,1.385-1.288A9.95,9.95,0,0,1,55.4,46.254a1.749,1.749,0,0,0-.068-1.89L53.79,42.142l1.019-1.019,2.223,1.544a1.749,1.749,0,0,0,1.889.068,9.915,9.915,0,0,1,2.591-1.076A1.751,1.751,0,0,0,62.8,40.274l.479-2.659h1.442l.479,2.659a1.751,1.751,0,0,0,1.288,1.385,9.915,9.915,0,0,1,2.591,1.076,1.751,1.751,0,0,0,1.889-.068l2.223-1.544,1.019,1.019-1.544,2.222a1.749,1.749,0,0,0-.068,1.89,9.95,9.95,0,0,1,1.076,2.591,1.748,1.748,0,0,0,1.385,1.288l2.66.48Z" fill="#d9176c"/>
      <path d="M64,44.957a6.376,6.376,0,1,0,6.376,6.376A6.383,6.383,0,0,0,64,44.957Zm0,9.252a2.876,2.876,0,1,1,2.876-2.876A2.879,2.879,0,0,1,64,54.209Z" fill="#d9176c"/>
    </g>
    <rect x="49.819" y="81.707" width="28.363" height="6.696" fill="#35b0cb"/>
    <rect x="49.819" y="88.403" width="28.363" height="6.696" fill="#88cde9"/>
    <path d="M49.819,95.1H78.181a0,0,0,0,1,0,0v3.091a3.605,3.605,0,0,1-3.605,3.605H53.424a3.605,3.605,0,0,1-3.605-3.605V95.1A0,0,0,0,1,49.819,95.1Z" fill="#35b0cb"/>
    <path d="M54.844,101.794H73.156a0,0,0,0,1,0,0V104.5a4.538,4.538,0,0,1-4.538,4.538H59.382a4.538,4.538,0,0,1-4.538-4.538v-2.708A0,0,0,0,1,54.844,101.794Z" fill="#88cde9"/>
  </g>
</svg>
