<?xml version="1.0" encoding="UTF-8"?>
<svg xmlns="http://www.w3.org/2000/svg" xmlns:xlink="http://www.w3.org/1999/xlink" width="90px" height="90px" viewBox="0 0 90 90" version="1.1">
<g id="surface1">
<path style=" stroke:none;fill-rule:nonzero;fill:rgb(52.54902%,71.372549%,23.137255%);fill-opacity:1;" d="M 85.78125 25.3125 C 85.78125 21.292969 83.636719 17.578125 80.152344 15.570312 C 80.152344 15.535156 80.15625 15.503906 80.15625 15.46875 C 80.15625 12.550781 78.648438 9.84375 76.171875 8.304688 C 73.695312 6.761719 70.601562 6.613281 67.984375 7.902344 C 63.050781 2.992188 55.074219 2.992188 50.140625 7.902344 C 47.523438 6.613281 44.429688 6.761719 41.953125 8.304688 C 39.476562 9.84375 37.96875 12.550781 37.96875 15.46875 C 37.96875 15.503906 37.972656 15.535156 37.972656 15.570312 C 34.488281 17.578125 32.34375 21.292969 32.34375 25.3125 C 32.34375 29.332031 34.488281 33.046875 37.972656 35.054688 C 37.972656 35.089844 37.96875 35.121094 37.96875 35.15625 C 37.96875 38.074219 39.476562 40.78125 41.953125 42.320312 C 44.429688 43.863281 47.523438 44.011719 50.140625 42.722656 C 55.074219 47.632812 63.050781 47.632812 67.984375 42.722656 C 70.601562 44.011719 73.695312 43.863281 76.171875 42.320312 C 78.648438 40.78125 80.15625 38.074219 80.15625 35.15625 C 80.15625 35.121094 80.152344 35.089844 80.152344 35.054688 C 83.636719 33.046875 85.78125 29.332031 85.78125 25.3125 Z M 85.78125 25.3125 "/>
<path style=" stroke:none;fill-rule:nonzero;fill:rgb(100%,70.588235%,19.215686%);fill-opacity:1;" d="M 68.90625 21.09375 C 68.90625 16.71875 66.019531 12.867188 61.820312 11.640625 C 57.617188 10.414062 53.113281 12.109375 50.761719 15.800781 C 48.410156 19.488281 48.777344 24.289062 51.660156 27.582031 C 52.8125 28.898438 53.441406 30.59375 53.4375 32.34375 L 64.6875 32.34375 C 64.675781 30.601562 65.300781 28.914062 66.445312 27.601562 C 68.035156 25.804688 68.910156 23.492188 68.90625 21.09375 Z M 68.90625 21.09375 "/>
<path style=" stroke:none;fill-rule:nonzero;fill:rgb(97.647059%,61.960784%,4.705882%);fill-opacity:1;" d="M 53.4375 32.34375 L 64.6875 32.34375 L 64.6875 35.15625 C 64.6875 36.710938 63.429688 37.96875 61.875 37.96875 L 56.25 37.96875 C 54.695312 37.96875 53.4375 36.710938 53.4375 35.15625 Z M 53.4375 32.34375 "/>
<path style=" stroke:none;fill-rule:nonzero;fill:rgb(99.215686%,74.901961%,57.254902%);fill-opacity:1;" d="M 22.5 43.59375 L 33.75 43.59375 L 33.75 54.84375 L 22.5 54.84375 Z M 22.5 43.59375 "/>
<path style=" stroke:none;fill-rule:nonzero;fill:rgb(19.607843%,33.72549%,50.196078%);fill-opacity:1;" d="M 9.84375 54.84375 L 46.40625 54.84375 C 49.511719 54.84375 52.03125 57.363281 52.03125 60.46875 L 52.03125 80.15625 C 52.03125 83.261719 49.511719 85.78125 46.40625 85.78125 L 9.84375 85.78125 C 6.738281 85.78125 4.21875 83.261719 4.21875 80.15625 L 4.21875 60.46875 C 4.21875 57.363281 6.738281 54.84375 9.84375 54.84375 Z M 9.84375 54.84375 "/>
<path style=" stroke:none;fill-rule:nonzero;fill:rgb(87.45098%,87.45098%,86.666667%);fill-opacity:1;" d="M 36.5625 54.84375 L 31.101562 68.492188 L 28.125 75.9375 L 25.148438 68.492188 L 19.6875 54.84375 Z M 36.5625 54.84375 "/>
<path style=" stroke:none;fill-rule:nonzero;fill:rgb(52.54902%,71.372549%,23.137255%);fill-opacity:1;" d="M 31.101562 68.492188 L 28.125 75.9375 L 25.148438 68.492188 L 26.71875 59.0625 L 25.3125 54.84375 L 30.9375 54.84375 L 29.53125 59.0625 Z M 31.101562 68.492188 "/>
<path style=" stroke:none;fill-rule:nonzero;fill:rgb(99.215686%,74.901961%,57.254902%);fill-opacity:1;" d="M 15.46875 25.3125 L 15.46875 37.96875 C 15.46875 44.183594 20.503906 49.21875 26.71875 49.21875 L 29.59375 49.21875 C 35.773438 49.21875 40.78125 44.210938 40.78125 38.03125 L 40.78125 25.3125 C 40.78125 22.984375 38.890625 21.09375 36.5625 21.09375 L 19.6875 21.09375 C 17.359375 21.09375 15.46875 22.984375 15.46875 25.3125 Z M 15.46875 25.3125 "/>
<path style=" stroke:none;fill-rule:nonzero;fill:rgb(19.607843%,33.72549%,50.196078%);fill-opacity:1;" d="M 15.46875 29.53125 L 15.46875 23.90625 C 15.46875 20.023438 18.617188 16.875 22.5 16.875 L 43.59375 16.875 L 43.59375 19.6875 C 43.59375 22.015625 41.703125 23.90625 39.375 23.90625 L 21.09375 23.90625 Z M 15.46875 29.53125 "/>
<path style=" stroke:none;fill-rule:nonzero;fill:rgb(99.215686%,71.372549%,51.372549%);fill-opacity:1;" d="M 14.0625 37.96875 L 15.46875 37.96875 L 15.46875 29.53125 L 14.0625 29.53125 C 11.734375 29.53125 9.84375 31.421875 9.84375 33.75 C 9.84375 36.078125 11.734375 37.96875 14.0625 37.96875 Z M 14.0625 37.96875 "/>
<path style=" stroke:none;fill-rule:nonzero;fill:rgb(99.215686%,71.372549%,51.372549%);fill-opacity:1;" d="M 42.1875 29.53125 L 40.78125 29.53125 L 40.78125 37.96875 L 42.1875 37.96875 C 44.515625 37.96875 46.40625 36.078125 46.40625 33.75 C 46.40625 31.421875 44.515625 29.53125 42.1875 29.53125 Z M 42.1875 29.53125 "/>
<path style=" stroke:none;fill-rule:nonzero;fill:rgb(21.568627%,36.862745%,55.294118%);fill-opacity:1;" d="M 14.0625 54.84375 L 4.21875 75.9375 L 4.21875 80.15625 C 4.21875 83.261719 6.738281 85.78125 9.84375 85.78125 L 15.46875 85.78125 L 22.5 54.84375 Z M 14.0625 54.84375 "/>
<path style=" stroke:none;fill-rule:nonzero;fill:rgb(99.215686%,78.431373%,63.529412%);fill-opacity:1;" d="M 23.90625 75.9375 L 22.304688 74.871094 C 20.6875 73.789062 18.613281 73.660156 16.875 74.53125 L 12.65625 74.53125 C 11.101562 74.53125 9.84375 75.789062 9.84375 77.34375 C 9.84375 78.898438 11.101562 80.15625 12.65625 80.15625 L 9.84375 80.15625 L 9.84375 75.9375 C 9.84375 74.382812 8.585938 73.125 7.03125 73.125 C 5.476562 73.125 4.21875 74.382812 4.21875 75.9375 L 4.21875 80.15625 C 4.21875 83.261719 6.738281 85.78125 9.84375 85.78125 L 23.90625 85.78125 Z M 23.90625 75.9375 "/>
<path style=" stroke:none;fill-rule:nonzero;fill:rgb(99.215686%,78.431373%,63.529412%);fill-opacity:1;" d="M 14.0625 54.84375 L 17.597656 45.417969 C 18.007812 44.320312 19.058594 43.59375 20.230469 43.59375 L 28.125 43.59375 C 29.679688 43.59375 30.9375 44.851562 30.9375 46.40625 L 30.9375 52.03125 C 30.9375 53.585938 29.679688 54.84375 28.125 54.84375 C 26.570312 54.84375 25.3125 53.585938 25.3125 52.03125 C 25.3125 53.585938 24.054688 54.84375 22.5 54.84375 Z M 14.0625 54.84375 "/>
<path style=" stroke:none;fill-rule:nonzero;fill:rgb(0%,0%,0%);fill-opacity:1;" d="M 81.539062 14.777344 C 81.167969 9.625 76.882812 5.632812 71.71875 5.625 C 70.542969 5.621094 69.371094 5.832031 68.269531 6.246094 C 62.984375 1.667969 55.140625 1.667969 49.855469 6.246094 C 48.753906 5.832031 47.582031 5.621094 46.40625 5.625 C 42.234375 5.628906 38.519531 8.257812 37.121094 12.1875 L 39.773438 13.125 C 40.769531 10.316406 43.425781 8.441406 46.40625 8.4375 C 47.484375 8.433594 48.550781 8.683594 49.519531 9.164062 C 50.058594 9.429688 50.707031 9.324219 51.132812 8.898438 C 55.519531 4.535156 62.605469 4.535156 66.992188 8.898438 C 67.421875 9.324219 68.070312 9.429688 68.609375 9.164062 C 69.574219 8.683594 70.640625 8.433594 71.71875 8.4375 C 75.605469 8.441406 78.753906 11.597656 78.75 15.484375 C 78.75 15.511719 78.75 15.539062 78.75 15.570312 C 78.75 16.074219 79.015625 16.535156 79.453125 16.789062 C 82.5 18.546875 84.375 21.796875 84.375 25.3125 C 84.375 28.828125 82.5 32.078125 79.453125 33.835938 C 79.015625 34.089844 78.75 34.550781 78.75 35.054688 C 78.75 35.085938 78.75 35.113281 78.75 35.15625 C 78.746094 39.039062 75.601562 42.183594 71.71875 42.1875 C 70.640625 42.191406 69.574219 41.941406 68.609375 41.460938 C 68.070312 41.195312 67.421875 41.300781 66.992188 41.726562 C 62.605469 46.089844 55.519531 46.089844 51.132812 41.726562 C 50.707031 41.300781 50.054688 41.195312 49.515625 41.460938 C 47.035156 42.6875 44.0625 42.339844 41.929688 40.578125 C 42.011719 40.183594 42.074219 39.78125 42.117188 39.375 L 42.1875 39.375 C 45.292969 39.375 47.8125 36.855469 47.8125 33.75 C 47.8125 30.644531 45.292969 28.125 42.1875 28.125 L 42.1875 25.3125 C 42.1875 25.070312 42.171875 24.824219 42.140625 24.582031 C 43.90625 23.585938 45 21.714844 45 19.6875 L 45 16.875 C 45 16.097656 44.371094 15.46875 43.59375 15.46875 L 22.5 15.46875 C 20.671875 15.464844 18.894531 16.054688 17.4375 17.15625 L 19.125 19.40625 C 20.097656 18.671875 21.28125 18.277344 22.5 18.28125 L 42.1875 18.28125 L 42.1875 19.6875 C 42.1875 21.238281 40.925781 22.5 39.375 22.5 L 21.09375 22.5 C 20.722656 22.5 20.363281 22.648438 20.097656 22.910156 L 16.875 26.136719 L 16.875 23.90625 C 16.875 22.820312 17.1875 21.761719 17.777344 20.851562 L 15.417969 19.320312 C 14.53125 20.6875 14.0625 22.28125 14.0625 23.90625 L 14.0625 28.125 C 10.957031 28.125 8.4375 30.644531 8.4375 33.75 C 8.4375 36.855469 10.957031 39.375 14.0625 39.375 L 14.140625 39.375 C 14.246094 40.324219 14.457031 41.261719 14.773438 42.164062 L 17.429688 41.234375 C 17.0625 40.183594 16.875 39.082031 16.875 37.96875 L 16.875 30.113281 L 21.675781 25.3125 L 39.375 25.3125 L 39.375 38.03125 C 39.386719 42.035156 36.949219 45.636719 33.226562 47.113281 C 32.9375 47.230469 32.644531 47.332031 32.34375 47.421875 L 32.34375 46.40625 C 32.339844 44.078125 30.453125 42.191406 28.125 42.1875 L 32.34375 42.1875 L 32.34375 39.375 L 23.90625 39.375 L 23.90625 42.1875 L 20.230469 42.1875 C 18.472656 42.191406 16.902344 43.28125 16.28125 44.925781 L 13.089844 53.4375 L 9.84375 53.4375 C 5.960938 53.441406 2.816406 56.585938 2.8125 60.46875 L 2.8125 80.15625 C 2.816406 84.039062 5.960938 87.183594 9.84375 87.1875 L 46.40625 87.1875 C 50.289062 87.183594 53.433594 84.039062 53.4375 80.15625 L 53.4375 73.125 L 50.625 73.125 L 50.625 80.15625 C 50.621094 82.484375 48.734375 84.371094 46.40625 84.375 L 30.9375 84.375 L 30.9375 81.5625 L 28.125 81.5625 L 28.125 84.375 L 25.3125 84.375 L 25.3125 77.34375 L 42.1875 77.34375 C 42.964844 77.34375 43.59375 76.714844 43.59375 75.9375 L 43.59375 66.09375 L 40.78125 66.09375 L 40.78125 74.53125 L 30.203125 74.53125 L 37.515625 56.25 L 46.40625 56.25 C 48.734375 56.253906 50.621094 58.140625 50.625 60.46875 L 50.625 70.488281 L 53.4375 70.488281 L 53.4375 60.46875 C 53.433594 56.585938 50.289062 53.441406 46.40625 53.4375 L 35.15625 53.4375 L 35.15625 49.332031 C 37.726562 48.078125 39.789062 45.976562 41.003906 43.386719 C 43.628906 45.105469 46.914062 45.476562 49.855469 44.378906 C 55.140625 48.957031 62.984375 48.957031 68.269531 44.378906 C 69.371094 44.792969 70.542969 45.003906 71.71875 45 C 76.882812 44.992188 81.167969 41 81.539062 35.847656 C 85.066406 33.503906 87.1875 29.550781 87.1875 25.3125 C 87.1875 21.074219 85.066406 17.121094 81.539062 14.777344 Z M 42.1875 30.9375 C 43.742188 30.9375 45 32.195312 45 33.75 C 45 35.304688 43.742188 36.5625 42.1875 36.5625 Z M 14.0625 36.5625 C 12.507812 36.5625 11.25 35.304688 11.25 33.75 C 11.25 32.195312 12.507812 30.9375 14.0625 30.9375 Z M 14.957031 56.25 L 20.738281 56.25 L 20.109375 59.015625 L 20.101562 59.046875 L 16.9375 72.976562 C 16.8125 73.023438 16.6875 73.070312 16.5625 73.125 L 12.65625 73.125 C 11.929688 73.125 11.21875 73.3125 10.585938 73.667969 C 9.941406 72.660156 8.894531 71.96875 7.710938 71.777344 Z M 5.625 60.46875 C 5.628906 58.140625 7.515625 56.253906 9.84375 56.25 L 11.855469 56.25 L 5.625 69.597656 Z M 22.5 84.375 L 9.84375 84.375 C 7.515625 84.371094 5.628906 82.484375 5.625 80.15625 L 5.625 76.25 L 6.34375 74.714844 C 6.777344 74.46875 7.308594 74.472656 7.742188 74.722656 C 8.171875 74.976562 8.4375 75.4375 8.4375 75.9375 L 8.4375 80.15625 C 8.4375 80.933594 9.066406 81.5625 9.84375 81.5625 L 16.875 81.5625 C 17.652344 81.5625 18.28125 80.933594 18.28125 80.15625 C 18.28125 79.378906 17.652344 78.75 16.875 78.75 L 12.65625 78.75 C 11.878906 78.75 11.25 78.121094 11.25 77.34375 C 11.25 76.566406 11.878906 75.9375 12.65625 75.9375 L 16.875 75.9375 C 17.09375 75.9375 17.308594 75.886719 17.503906 75.789062 C 18.792969 75.148438 20.324219 75.242188 21.523438 76.039062 L 22.5 76.691406 Z M 24.332031 74.53125 L 23.082031 73.699219 C 22.136719 73.066406 21.046875 72.683594 19.910156 72.582031 L 21.851562 64.042969 L 26.046875 74.53125 Z M 22.949219 59.210938 L 23.621094 56.25 L 24.300781 56.25 L 25.273438 59.175781 L 24.585938 63.304688 Z M 25.3125 47.8125 C 24.535156 47.8125 23.90625 48.441406 23.90625 49.21875 L 23.90625 52.03125 C 23.90625 52.808594 23.277344 53.4375 22.5 53.4375 L 16.089844 53.4375 L 18.914062 45.914062 C 19.121094 45.363281 19.644531 45 20.230469 45 L 28.125 45 C 28.902344 45 29.53125 45.628906 29.53125 46.40625 L 29.53125 52.03125 C 29.53125 52.808594 28.902344 53.4375 28.125 53.4375 C 27.347656 53.4375 26.71875 52.808594 26.71875 52.03125 L 26.71875 49.21875 C 26.71875 48.441406 26.089844 47.8125 25.3125 47.8125 Z M 28.125 72.152344 L 26.597656 68.335938 L 28.105469 59.292969 C 28.144531 59.066406 28.125 58.835938 28.054688 58.617188 L 27.265625 56.25 L 28.984375 56.25 L 28.195312 58.617188 C 28.125 58.835938 28.105469 59.066406 28.144531 59.292969 L 29.652344 68.335938 Z M 31.664062 63.304688 L 30.976562 59.175781 L 31.949219 56.25 L 34.484375 56.25 Z M 56.25 39.375 L 61.875 39.375 C 64.203125 39.371094 66.089844 37.484375 66.09375 35.15625 L 66.09375 32.34375 C 66.082031 30.945312 66.582031 29.589844 67.5 28.53125 C 71.484375 24.011719 71.203125 17.152344 66.855469 12.980469 C 62.511719 8.804688 55.648438 8.792969 51.289062 12.957031 C 46.933594 17.121094 46.628906 23.976562 50.601562 28.507812 C 51.527344 29.570312 52.035156 30.933594 52.03125 32.34375 L 52.03125 35.15625 C 52.035156 37.484375 53.921875 39.371094 56.25 39.375 Z M 63.28125 35.15625 C 63.28125 35.933594 62.652344 36.5625 61.875 36.5625 L 56.25 36.5625 C 55.472656 36.5625 54.84375 35.933594 54.84375 35.15625 L 54.84375 33.75 L 63.28125 33.75 Z M 50.625 20.914062 C 50.707031 17.183594 53.226562 13.945312 56.824219 12.957031 C 60.421875 11.964844 64.242188 13.457031 66.21875 16.621094 C 68.195312 19.785156 67.859375 23.871094 65.390625 26.671875 C 64.335938 27.875 63.640625 29.355469 63.394531 30.9375 L 60.46875 30.9375 L 60.46875 25.894531 L 64.277344 22.089844 L 62.285156 20.097656 L 59.0625 23.324219 L 55.839844 20.097656 L 53.847656 22.089844 L 57.65625 25.894531 L 57.65625 30.9375 L 54.730469 30.9375 C 54.476562 29.347656 53.777344 27.863281 52.714844 26.652344 C 51.324219 25.070312 50.578125 23.019531 50.625 20.914062 Z M 71.71875 23.90625 L 75.9375 23.90625 L 75.9375 26.71875 L 71.71875 26.71875 Z M 81.5625 26.71875 L 78.75 26.71875 L 78.75 23.90625 L 81.5625 23.90625 Z M 73.535156 11.660156 L 75.527344 13.652344 L 72.714844 16.464844 L 70.722656 14.472656 Z M 70.722656 36.152344 L 72.714844 34.160156 L 75.527344 36.972656 L 73.535156 38.964844 Z M 33.75 33.75 C 32.195312 33.75 30.9375 32.492188 30.9375 30.9375 C 30.9375 29.382812 32.195312 28.125 33.75 28.125 C 35.304688 28.125 36.5625 29.382812 36.5625 30.9375 C 36.5625 32.488281 35.300781 33.75 33.75 33.75 Z M 19.6875 30.9375 C 19.6875 29.382812 20.945312 28.125 22.5 28.125 C 24.054688 28.125 25.3125 29.382812 25.3125 30.9375 C 25.3125 32.492188 24.054688 33.75 22.5 33.75 C 20.949219 33.75 19.6875 32.488281 19.6875 30.9375 Z M 18.28125 63.28125 L 15.46875 63.28125 L 15.46875 60.46875 L 18.28125 60.46875 Z M 18.28125 63.28125 "/>
</g>
</svg>
