<?xml version="1.0" encoding="utf-8"?>
<!-- Generator: Adobe Illustrator 22.0.1, SVG Export Plug-In . SVG Version: 6.00 Build 0)  -->
<svg version="1.1" id="Layer_1" xmlns="http://www.w3.org/2000/svg" xmlns:xlink="http://www.w3.org/1999/xlink" x="0px" y="0px"
	 viewBox="0 0 100 100" style="enable-background:new 0 0 100 100;" xml:space="preserve">
<style type="text/css">
	.st0{stroke:#231F20;stroke-width:3;stroke-linecap:round;stroke-linejoin:round;stroke-miterlimit:10;}
</style>
<g>
	<path d="M85,68.4131v-3.2637c0,0.1362,0.9688,0.3911,1.5645,0.7481c0.1699,0.102,0.246,0.1528,0.4169,0.1528
		c0.5264,0,0.9043-0.4077,0.9043-0.9346c0-0.4082-0.1084-0.6631-0.3798-0.8159C86.7227,63.8066,86,63.4839,85,63.3647v-0.374
		c0-0.4077-0.584-0.7309-0.9912-0.7309C83.6006,62.2598,83,62.583,83,62.9907v0.357c-2,0.1699-3.6035,1.4277-3.6035,3.2465
		c0,1.9209,1.6035,2.856,3.6035,3.502v3.3486c-1-0.1699-1.5752-0.561-2.374-1.1391c-0.1524-0.11871-0.2862-0.187-0.4893-0.187
		c-0.52731,0-0.89941,0.4082-0.89941,0.93501c0,0.3569,0.0791,0.6289,0.3682,0.8159C80.6416,74.6006,82,75.0596,83,75.1953v1.0542
		c0,0.40771,0.6006,0.731,1.0088,0.731c0.4072,0,0.9912-0.3233,0.9912-0.731v-1.02c2-0.2041,3.6553-1.4448,3.6553-3.3145
		C88.6553,70.0962,87,69.0591,85,68.4131z M83,68.0562c-1-0.4249-1.6318-0.8667-1.6318-1.5806c0-0.7481,0.6318-1.3262,1.6318-1.4282
		V68.0562z M85,73.5127v-3.0938c1,0.4082,1.6836,0.8672,1.6836,1.6148C86.6836,72.8496,86,73.3936,85,73.5127z"/>
	<path d="M36,56H9c-0.82812,0-1.5,0.6714-1.5,1.5S8.17188,59,9,59h27c0.82808,0,1.5-0.6714,1.5-1.5S36.82808,56,36,56z"/>
	<path d="M26,61H9c-0.82812,0-1.5,0.6714-1.5,1.5S8.17188,64,9,64h17c0.82808,0,1.5-0.6714,1.5-1.5S26.82808,61,26,61z"/>
	<path d="M89,54.4521V45V32v-6.7603C89,22.0566,86.9434,20,83.7598,20H6.24018C3.17288,20,0,21.96,0,25.2397V32v13v24.7603
		C0,72.9092,3.09078,76,6.24018,76H69.4453c2.5332,5.3159,7.94431,9.0078,14.2149,9.0078c8.6865,0,15.7539-7.06689,15.7539-15.7534
		C99.4141,62.4443,95.0625,56.6465,89,54.4521z M86,42H3v-7h83V42z M3,25.2397C3,23.8564,4.68158,23,6.24018,23H83.7598
		C85.2676,23,86,23.7324,86,25.2397V32H3V25.2397z M6.24018,73C4.72658,73,3,71.2739,3,69.7603V45h83v8.6938
		c-0.7656-0.1147-1.543-0.1933-2.3398-0.1933c-8.6866,0-15.7539,7.0674-15.7539,15.7539c0,1.2925,0.1738,2.5425,0.4687,3.7456
		H6.24018z M83.6602,82.0078c-7.0323,0-12.7539-5.7212-12.7539-12.7534c0-7.0327,5.7216-12.7539,12.7539-12.7539
		c7.0322,0,12.7539,5.7212,12.7539,12.7539C96.4141,76.2866,90.6924,82.0078,83.6602,82.0078z"/>
</g>
</svg>
