<?xml version="1.0" encoding="UTF-8"?>
<svg xmlns="http://www.w3.org/2000/svg" xmlns:xlink="http://www.w3.org/1999/xlink" width="90px" height="90px" viewBox="0 0 90 90" version="1.1">
<g id="surface1">
<path style=" stroke:none;fill-rule:nonzero;fill:rgb(99.215686%,71.372549%,51.372549%);fill-opacity:1;" d="M 8.4375 80.15625 C 6.109375 80.15625 4.21875 78.265625 4.21875 75.9375 L 4.21875 52.324219 C 4.21875 49.6875 6.050781 47.40625 8.625 46.832031 L 15.46875 45 L 18.28125 43.59375 L 18.28125 33.75 L 32.34375 33.75 L 32.34375 43.59375 L 35.15625 45 L 42 46.832031 C 44.574219 47.40625 46.40625 49.6875 46.40625 52.324219 L 46.40625 75.9375 C 46.40625 78.265625 44.515625 80.15625 42.1875 80.15625 Z M 8.4375 80.15625 "/>
<path style=" stroke:none;fill-rule:nonzero;fill:rgb(45.098039%,58.039216%,24.705882%);fill-opacity:1;" d="M 36.5625 85.78125 L 14.0625 85.78125 L 14.0625 63.28125 L 4.21875 63.28125 L 4.21875 52.324219 C 4.21875 49.6875 6.050781 47.40625 8.625 46.832031 L 15.46875 45 L 18.28125 43.59375 L 22.5 49.21875 L 25.3125 57.65625 L 28.125 49.21875 L 32.34375 43.59375 L 35.15625 45 L 42 46.832031 C 44.574219 47.40625 46.40625 49.6875 46.40625 52.324219 L 46.40625 63.28125 L 36.5625 63.28125 Z M 36.5625 85.78125 "/>
<path style=" stroke:none;fill-rule:nonzero;fill:rgb(39.607843%,52.156863%,20.784314%);fill-opacity:1;" d="M 35.15625 57.65625 L 37.96875 57.65625 L 37.96875 63.28125 L 35.15625 63.28125 Z M 35.15625 57.65625 "/>
<path style=" stroke:none;fill-rule:nonzero;fill:rgb(49.411765%,61.568627%,30.196078%);fill-opacity:1;" d="M 15.46875 45 L 16.875 54.84375 L 22.5 49.21875 L 18.28125 43.59375 Z M 15.46875 45 "/>
<path style=" stroke:none;fill-rule:nonzero;fill:rgb(49.411765%,61.568627%,30.196078%);fill-opacity:1;" d="M 28.125 49.21875 L 32.34375 43.59375 L 35.15625 45 L 33.75 54.84375 Z M 28.125 49.21875 "/>
<path style=" stroke:none;fill-rule:nonzero;fill:rgb(99.215686%,71.372549%,51.372549%);fill-opacity:1;" d="M 35.15625 61.875 L 46.40625 61.875 L 46.40625 71.71875 L 35.15625 71.71875 L 15.46875 80.15625 L 8.4375 80.15625 C 6.109375 80.15625 4.21875 78.265625 4.21875 75.9375 L 4.21875 67.5 Z M 35.15625 61.875 "/>
<path style=" stroke:none;fill-rule:nonzero;fill:rgb(99.215686%,78.431373%,63.529412%);fill-opacity:1;" d="M 15.46875 61.875 L 4.21875 61.875 L 4.21875 71.71875 L 15.46875 71.71875 L 35.15625 80.15625 L 42.1875 80.15625 C 44.515625 80.15625 46.40625 78.265625 46.40625 75.9375 L 46.40625 67.5 Z M 15.46875 61.875 "/>
<path style=" stroke:none;fill-rule:nonzero;fill:rgb(99.215686%,74.901961%,57.254902%);fill-opacity:1;" d="M 21.09375 14.0625 L 29.53125 14.0625 C 32.636719 14.0625 35.15625 16.582031 35.15625 19.6875 L 35.15625 29.53125 C 35.15625 34.96875 30.75 39.375 25.3125 39.375 C 19.875 39.375 15.46875 34.96875 15.46875 29.53125 L 15.46875 19.6875 C 15.46875 16.582031 17.988281 14.0625 21.09375 14.0625 Z M 21.09375 14.0625 "/>
<path style=" stroke:none;fill-rule:nonzero;fill:rgb(21.568627%,36.862745%,55.294118%);fill-opacity:1;" d="M 14.0625 18.28125 L 14.0625 22.5 L 15.46875 22.5 C 20.738281 22.5 25.664062 19.867188 28.585938 15.480469 L 29.53125 14.0625 L 35.15625 22.5 L 36.5625 22.5 L 36.5625 18.28125 C 36.5625 12.066406 31.527344 7.03125 25.3125 7.03125 C 19.097656 7.03125 14.0625 12.066406 14.0625 18.28125 Z M 14.0625 18.28125 "/>
<path style=" stroke:none;fill-rule:nonzero;fill:rgb(99.215686%,71.372549%,51.372549%);fill-opacity:1;" d="M 35.15625 22.5 L 35.859375 22.5 C 37.800781 22.5 39.375 24.074219 39.375 26.015625 C 39.375 27.957031 37.800781 29.53125 35.859375 29.53125 L 35.15625 29.53125 Z M 35.15625 22.5 "/>
<path style=" stroke:none;fill-rule:nonzero;fill:rgb(99.215686%,71.372549%,51.372549%);fill-opacity:1;" d="M 15.46875 29.53125 L 14.765625 29.53125 C 12.824219 29.53125 11.25 27.957031 11.25 26.015625 C 11.25 24.074219 12.824219 22.5 14.765625 22.5 L 15.46875 22.5 Z M 15.46875 29.53125 "/>
<path style=" stroke:none;fill-rule:nonzero;fill:rgb(99.215686%,71.372549%,51.372549%);fill-opacity:1;" d="M 81.5625 74.53125 L 53.4375 74.53125 C 51.109375 74.53125 49.21875 72.640625 49.21875 70.3125 L 49.21875 49.242188 C 49.21875 46.730469 50.882812 44.523438 53.296875 43.835938 L 59.0625 42.1875 L 61.875 40.78125 L 61.875 30.9375 L 73.125 30.9375 L 73.125 40.78125 L 75.9375 42.1875 L 81.703125 43.835938 C 84.117188 44.523438 85.78125 46.730469 85.78125 49.242188 L 85.78125 70.3125 C 85.78125 72.640625 83.890625 74.53125 81.5625 74.53125 Z M 81.5625 74.53125 "/>
<path style=" stroke:none;fill-rule:nonzero;fill:rgb(45.098039%,58.039216%,24.705882%);fill-opacity:1;" d="M 85.78125 49.242188 C 85.78125 46.730469 84.117188 44.523438 81.703125 43.835938 L 75.9375 42.1875 L 73.125 40.78125 L 68.90625 49.21875 L 67.5 53.4375 L 66.09375 49.21875 L 61.875 40.78125 L 59.0625 42.1875 L 53.296875 43.835938 C 50.882812 44.523438 49.21875 46.730469 49.21875 49.242188 L 49.21875 56.25 L 55.648438 56.25 C 54.097656 59.527344 54.804688 63.453125 57.65625 66.09375 L 57.65625 74.53125 L 77.34375 74.53125 L 77.34375 66.09375 C 80.195312 63.453125 80.902344 59.527344 79.351562 56.25 L 85.78125 56.25 Z M 85.78125 49.242188 "/>
<path style=" stroke:none;fill-rule:nonzero;fill:rgb(39.607843%,52.156863%,20.784314%);fill-opacity:1;" d="M 59.0625 74.53125 L 56.25 74.53125 L 56.25 66.683594 C 52.648438 62.9375 52.453125 57.304688 55.882812 53.335938 L 56.59375 52.519531 L 58.71875 54.355469 L 58.011719 55.175781 C 55.457031 58.132812 55.714844 62.382812 58.613281 65.0625 C 58.898438 65.328125 59.0625 65.703125 59.0625 66.09375 Z M 59.0625 74.53125 "/>
<path style=" stroke:none;fill-rule:nonzero;fill:rgb(49.411765%,61.568627%,30.196078%);fill-opacity:1;" d="M 59.0625 42.1875 L 60.46875 53.4375 L 66.09375 49.21875 L 61.875 40.78125 Z M 59.0625 42.1875 "/>
<path style=" stroke:none;fill-rule:nonzero;fill:rgb(49.411765%,61.568627%,30.196078%);fill-opacity:1;" d="M 75.9375 42.1875 L 74.53125 53.4375 L 68.90625 49.21875 L 73.125 40.78125 Z M 75.9375 42.1875 "/>
<path style=" stroke:none;fill-rule:nonzero;fill:rgb(19.607843%,33.72549%,50.196078%);fill-opacity:1;" d="M 73.125 11.25 L 73.125 16.875 L 77.34375 16.875 L 77.34375 29.53125 C 77.34375 34.191406 81.121094 37.96875 85.78125 37.96875 L 85.78125 19.6875 C 85.78125 15.027344 82.003906 11.25 77.34375 11.25 Z M 73.125 11.25 "/>
<path style=" stroke:none;fill-rule:nonzero;fill:rgb(99.215686%,74.901961%,57.254902%);fill-opacity:1;" d="M 63.28125 11.25 L 71.71875 11.25 C 74.824219 11.25 77.34375 13.769531 77.34375 16.875 L 77.34375 26.71875 C 77.34375 32.15625 72.9375 36.5625 67.5 36.5625 C 62.0625 36.5625 57.65625 32.15625 57.65625 26.71875 L 57.65625 16.875 C 57.65625 13.769531 60.175781 11.25 63.28125 11.25 Z M 63.28125 11.25 "/>
<path style=" stroke:none;fill-rule:nonzero;fill:rgb(21.568627%,36.862745%,55.294118%);fill-opacity:1;" d="M 78.75 22.5 L 77.34375 22.5 L 77.34375 19.6875 L 68.90625 12.65625 L 68.90625 7.03125 C 74.34375 7.03125 78.75 11.4375 78.75 16.875 Z M 78.75 22.5 "/>
<path style=" stroke:none;fill-rule:nonzero;fill:rgb(99.215686%,71.372549%,51.372549%);fill-opacity:1;" d="M 77.34375 19.6875 L 78.046875 19.6875 C 79.988281 19.6875 81.5625 21.261719 81.5625 23.203125 C 81.5625 25.144531 79.988281 26.71875 78.046875 26.71875 L 77.34375 26.71875 Z M 77.34375 19.6875 "/>
<path style=" stroke:none;fill-rule:nonzero;fill:rgb(99.215686%,71.372549%,51.372549%);fill-opacity:1;" d="M 57.65625 26.71875 L 56.953125 26.71875 C 55.011719 26.71875 53.4375 25.144531 53.4375 23.203125 C 53.4375 21.261719 55.011719 19.6875 56.953125 19.6875 L 57.65625 19.6875 Z M 57.65625 26.71875 "/>
<path style=" stroke:none;fill-rule:nonzero;fill:rgb(21.568627%,36.862745%,55.294118%);fill-opacity:1;" d="M 66.09375 7.03125 C 59.878906 7.03125 54.84375 12.066406 54.84375 18.28125 L 54.84375 23.90625 L 68.90625 12.65625 L 68.90625 7.03125 Z M 66.09375 7.03125 "/>
<path style=" stroke:none;fill-rule:nonzero;fill:rgb(87.45098%,87.45098%,86.666667%);fill-opacity:1;" d="M 66.09375 22.5 C 66.09375 24.828125 64.203125 26.71875 61.875 26.71875 C 59.546875 26.71875 57.65625 24.828125 57.65625 22.5 C 57.65625 20.171875 59.546875 18.28125 61.875 18.28125 C 64.203125 18.28125 66.09375 20.171875 66.09375 22.5 Z M 66.09375 22.5 "/>
<path style=" stroke:none;fill-rule:nonzero;fill:rgb(87.45098%,87.45098%,86.666667%);fill-opacity:1;" d="M 77.34375 22.5 C 77.34375 24.828125 75.453125 26.71875 73.125 26.71875 C 70.796875 26.71875 68.90625 24.828125 68.90625 22.5 C 68.90625 20.171875 70.796875 18.28125 73.125 18.28125 C 75.453125 18.28125 77.34375 20.171875 77.34375 22.5 Z M 77.34375 22.5 "/>
<path style=" stroke:none;fill-rule:nonzero;fill:rgb(16.862745%,29.803922%,45.098039%);fill-opacity:1;" d="M 73.125 16.875 C 71.117188 16.875 69.261719 17.949219 68.257812 19.6875 L 66.742188 19.6875 C 65.332031 17.246094 62.328125 16.230469 59.722656 17.3125 C 57.117188 18.394531 55.71875 21.238281 56.449219 23.960938 C 57.183594 26.683594 59.820312 28.445312 62.617188 28.074219 C 65.414062 27.707031 67.5 25.320312 67.5 22.5 C 67.5 25.605469 70.019531 28.125 73.125 28.125 C 76.230469 28.125 78.75 25.605469 78.75 22.5 C 78.75 19.394531 76.230469 16.875 73.125 16.875 Z M 61.875 25.3125 C 60.320312 25.3125 59.0625 24.054688 59.0625 22.5 C 59.0625 20.945312 60.320312 19.6875 61.875 19.6875 C 63.429688 19.6875 64.6875 20.945312 64.6875 22.5 C 64.6875 24.050781 63.425781 25.3125 61.875 25.3125 Z M 73.125 25.3125 C 71.570312 25.3125 70.3125 24.054688 70.3125 22.5 C 70.3125 20.945312 71.570312 19.6875 73.125 19.6875 C 74.679688 19.6875 75.9375 20.945312 75.9375 22.5 C 75.9375 24.050781 74.675781 25.3125 73.125 25.3125 Z M 73.125 25.3125 "/>
<path style=" stroke:none;fill-rule:nonzero;fill:rgb(21.568627%,36.862745%,55.294118%);fill-opacity:1;" d="M 80.15625 85.78125 L 54.84375 85.78125 L 57.65625 74.53125 L 77.34375 74.53125 Z M 80.15625 85.78125 "/>
<path style=" stroke:none;fill-rule:nonzero;fill:rgb(99.215686%,71.372549%,51.372549%);fill-opacity:1;" d="M 85.78125 68.90625 L 77.34375 68.90625 L 59.0625 74.53125 L 53.4375 74.53125 C 51.109375 74.53125 49.21875 72.640625 49.21875 70.3125 L 49.21875 66.09375 L 77.34375 60.46875 L 85.78125 60.46875 Z M 85.78125 68.90625 "/>
<path style=" stroke:none;fill-rule:nonzero;fill:rgb(99.215686%,78.431373%,63.529412%);fill-opacity:1;" d="M 49.21875 68.90625 L 57.65625 68.90625 L 75.9375 74.53125 L 81.5625 74.53125 C 83.890625 74.53125 85.78125 72.640625 85.78125 70.3125 L 85.78125 66.09375 L 57.65625 60.46875 L 49.21875 60.46875 Z M 49.21875 68.90625 "/>
<path style=" stroke:none;fill-rule:nonzero;fill:rgb(99.215686%,74.901961%,57.254902%);fill-opacity:1;" d="M 25.3125 77.34375 C 22.984375 77.34375 21.09375 75.453125 21.09375 73.125 L 21.09375 50.765625 C 21.09375 47.414062 23.460938 44.527344 26.746094 43.871094 L 35.15625 42.1875 L 37.96875 40.78125 L 37.96875 30.9375 L 52.03125 30.9375 L 52.03125 40.78125 L 54.84375 42.1875 L 63.253906 43.871094 C 66.539062 44.527344 68.90625 47.414062 68.90625 50.765625 L 68.90625 73.125 C 68.90625 75.453125 67.015625 77.34375 64.6875 77.34375 Z M 25.3125 77.34375 "/>
<path style=" stroke:none;fill-rule:nonzero;fill:rgb(52.54902%,71.372549%,23.137255%);fill-opacity:1;" d="M 59.0625 85.78125 L 30.9375 85.78125 L 30.9375 60.46875 L 21.09375 60.46875 L 21.09375 50.765625 C 21.09375 47.414062 23.460938 44.527344 26.746094 43.871094 L 35.15625 42.1875 L 37.96875 40.78125 L 37.96875 41.621094 C 37.96875 43.757812 38.941406 45.777344 40.609375 47.109375 C 43.175781 49.164062 46.824219 49.164062 49.390625 47.109375 C 51.058594 45.777344 52.03125 43.757812 52.03125 41.621094 L 52.03125 40.78125 L 54.84375 42.1875 L 63.253906 43.871094 C 66.539062 44.527344 68.90625 47.414062 68.90625 50.765625 L 68.90625 60.46875 L 59.0625 60.46875 Z M 59.0625 85.78125 "/>
<path style=" stroke:none;fill-rule:nonzero;fill:rgb(99.215686%,71.372549%,51.372549%);fill-opacity:1;" d="M 57.65625 59.0625 L 68.90625 59.0625 L 68.90625 68.90625 L 57.65625 68.90625 L 32.34375 77.34375 L 25.3125 77.34375 C 22.984375 77.34375 21.09375 75.453125 21.09375 73.125 L 21.09375 64.6875 Z M 57.65625 59.0625 "/>
<path style=" stroke:none;fill-rule:nonzero;fill:rgb(99.215686%,78.431373%,63.529412%);fill-opacity:1;" d="M 32.34375 59.0625 L 21.09375 59.0625 L 21.09375 68.90625 L 32.34375 68.90625 L 57.65625 77.34375 L 64.6875 77.34375 C 67.015625 77.34375 68.90625 75.453125 68.90625 73.125 L 68.90625 64.6875 Z M 32.34375 59.0625 "/>
<path style=" stroke:none;fill-rule:nonzero;fill:rgb(99.215686%,74.901961%,57.254902%);fill-opacity:1;" d="M 45 36.5625 C 39.5625 36.5625 35.15625 30.75 35.15625 25.3125 L 35.15625 14.0625 C 35.15625 10.957031 37.675781 8.4375 40.78125 8.4375 L 49.21875 8.4375 C 52.324219 8.4375 54.84375 10.957031 54.84375 14.0625 L 54.84375 25.3125 C 54.84375 30.75 50.4375 36.5625 45 36.5625 Z M 45 36.5625 "/>
<path style=" stroke:none;fill-rule:nonzero;fill:rgb(19.607843%,33.72549%,50.196078%);fill-opacity:1;" d="M 35.15625 16.875 L 40.78125 11.25 L 40.78125 5.625 C 37.675781 5.625 35.15625 8.144531 35.15625 11.25 Z M 35.15625 16.875 "/>
<path style=" stroke:none;fill-rule:nonzero;fill:rgb(21.568627%,36.862745%,55.294118%);fill-opacity:1;" d="M 54.84375 16.875 L 49.21875 11.25 L 49.21875 5.625 C 52.324219 5.625 54.84375 8.144531 54.84375 11.25 Z M 54.84375 16.875 "/>
<path style=" stroke:none;fill-rule:nonzero;fill:rgb(21.568627%,36.862745%,55.294118%);fill-opacity:1;" d="M 38.671875 11.25 L 49.21875 11.25 L 49.21875 5.625 C 48.316406 4.722656 47.097656 4.21875 45.824219 4.21875 L 38.671875 4.21875 C 36.730469 4.21875 35.15625 5.792969 35.15625 7.734375 C 35.15625 9.675781 36.730469 11.25 38.671875 11.25 Z M 38.671875 11.25 "/>
<path style=" stroke:none;fill-rule:nonzero;fill:rgb(99.215686%,71.372549%,51.372549%);fill-opacity:1;" d="M 54.84375 16.875 L 55.546875 16.875 C 57.488281 16.875 59.0625 18.449219 59.0625 20.390625 C 59.0625 22.332031 57.488281 23.90625 55.546875 23.90625 L 54.84375 23.90625 Z M 54.84375 16.875 "/>
<path style=" stroke:none;fill-rule:nonzero;fill:rgb(99.215686%,71.372549%,51.372549%);fill-opacity:1;" d="M 35.15625 23.90625 L 34.453125 23.90625 C 32.511719 23.90625 30.9375 22.332031 30.9375 20.390625 C 30.9375 18.449219 32.511719 16.875 34.453125 16.875 L 35.15625 16.875 Z M 35.15625 23.90625 "/>
<path style=" stroke:none;fill-rule:nonzero;fill:rgb(21.568627%,36.862745%,55.294118%);fill-opacity:1;" d="M 54.84375 16.875 L 54.84375 29.53125 C 54.84375 33.414062 51.695312 36.5625 47.8125 36.5625 L 42.1875 36.5625 C 38.304688 36.5625 35.15625 33.414062 35.15625 29.53125 L 35.15625 16.875 L 39.375 23.90625 L 50.625 23.90625 "/>
<path style=" stroke:none;fill-rule:nonzero;fill:rgb(0%,0%,0%);fill-opacity:1;" d="M 23.359375 32.34375 L 22.5 32.34375 L 22.5 29.53125 L 23.359375 29.53125 C 24.785156 29.519531 26.179688 29.105469 27.378906 28.339844 L 28.871094 30.722656 C 27.222656 31.769531 25.3125 32.332031 23.359375 32.34375 Z M 87.1875 19.6875 L 87.1875 37.96875 C 87.1875 38.746094 86.558594 39.375 85.78125 39.375 C 81.777344 39.371094 78.175781 36.945312 76.664062 33.238281 C 76.0625 34.085938 75.34375 34.847656 74.53125 35.5 L 74.53125 39.910156 L 76.449219 40.871094 L 82.085938 42.480469 C 85.101562 43.351562 87.179688 46.105469 87.1875 49.242188 L 87.1875 50.625 L 84.375 50.625 L 84.375 49.242188 C 84.371094 47.363281 83.125 45.710938 81.316406 45.1875 L 77.128906 43.992188 L 75.925781 53.613281 C 75.863281 54.109375 75.542969 54.535156 75.082031 54.734375 C 74.621094 54.929688 74.089844 54.863281 73.6875 54.5625 L 70.3125 52.03125 L 70.3125 60.441406 L 77.066406 59.089844 C 77.160156 59.070312 77.25 59.0625 77.34375 59.0625 L 78.707031 59.0625 C 78.625 58.296875 78.414062 57.546875 78.082031 56.851562 C 77.796875 56.246094 77.425781 55.683594 76.988281 55.175781 L 76.28125 54.355469 L 78.40625 52.519531 L 79.117188 53.335938 C 79.519531 53.804688 79.882812 54.308594 80.199219 54.84375 L 84.375 54.84375 L 84.375 53.4375 L 87.1875 53.4375 L 87.1875 70.3125 C 87.183594 73.417969 84.667969 75.933594 81.5625 75.9375 L 79.144531 75.9375 L 81.519531 85.441406 C 81.625 85.859375 81.53125 86.304688 81.265625 86.648438 C 81 86.988281 80.589844 87.1875 80.15625 87.1875 L 14.0625 87.1875 C 13.285156 87.1875 12.65625 86.558594 12.65625 85.78125 L 12.65625 81.5625 L 8.4375 81.5625 C 5.332031 81.558594 2.816406 79.042969 2.8125 75.9375 L 2.8125 52.324219 L 5.625 52.324219 L 5.625 60.46875 L 15.46875 60.46875 C 15.554688 60.46875 15.636719 60.476562 15.71875 60.492188 L 19.6875 61.210938 L 19.6875 54.019531 L 17.871094 55.839844 C 17.492188 56.214844 16.9375 56.347656 16.429688 56.179688 C 15.925781 56.007812 15.558594 55.570312 15.484375 55.042969 L 14.300781 46.769531 L 8.988281 48.191406 C 8.96875 48.199219 8.949219 48.203125 8.929688 48.207031 C 7.863281 48.441406 6.929688 49.082031 6.328125 49.996094 L 3.980469 48.441406 C 4.980469 46.929688 6.523438 45.867188 8.289062 45.46875 L 14.96875 43.679688 L 16.875 42.726562 L 16.875 36.972656 C 15.367188 35.273438 14.417969 33.152344 14.148438 30.898438 C 11.980469 30.625 10.25 28.949219 9.90625 26.792969 C 9.558594 24.632812 10.679688 22.507812 12.65625 21.570312 L 12.65625 18.28125 C 12.65625 13.761719 15.070312 9.582031 18.984375 7.320312 C 22.902344 5.0625 27.726562 5.058594 31.640625 7.320312 L 30.234375 9.753906 C 27.1875 7.996094 23.433594 7.996094 20.390625 9.753906 C 17.34375 11.511719 15.46875 14.765625 15.46875 18.28125 L 15.46875 21.09375 C 20.269531 21.09375 24.753906 18.695312 27.417969 14.699219 L 28.359375 13.28125 C 28.621094 12.890625 29.0625 12.65625 29.53125 12.65625 C 30 12.65625 30.441406 12.890625 30.699219 13.28125 L 32.445312 15.898438 C 32.859375 15.710938 33.300781 15.585938 33.75 15.519531 L 33.75 11.25 C 33.75 10.601562 33.839844 9.957031 34.015625 9.332031 C 33.5 7.828125 33.742188 6.167969 34.667969 4.875 C 35.589844 3.582031 37.082031 2.8125 38.671875 2.8125 L 45.824219 2.8125 C 47.273438 2.8125 48.675781 3.320312 49.789062 4.242188 C 53.4375 4.542969 56.246094 7.589844 56.25 11.25 L 56.25 15.519531 C 57.527344 15.707031 58.683594 16.386719 59.464844 17.417969 C 60.058594 17.132812 60.695312 16.960938 61.351562 16.898438 L 67.5 11.980469 L 67.5 8.4375 L 66.09375 8.4375 C 63.695312 8.4375 61.378906 9.3125 59.582031 10.898438 L 57.722656 8.789062 C 60.03125 6.75 63.011719 5.625 66.09375 5.625 L 68.90625 5.625 C 72.328125 5.617188 75.5625 7.175781 77.691406 9.851562 C 82.988281 10.046875 87.179688 14.390625 87.1875 19.6875 Z M 14.0625 24.027344 C 13.21875 24.324219 12.65625 25.121094 12.65625 26.015625 C 12.65625 26.910156 13.21875 27.707031 14.0625 28.003906 Z M 64.832031 17.71875 C 65.621094 18.207031 66.277344 18.882812 66.742188 19.6875 L 68.257812 19.6875 C 69.050781 18.316406 70.382812 17.34375 71.929688 17.003906 L 68.890625 14.472656 Z M 59.285156 23.585938 C 59.832031 24.886719 61.253906 25.582031 62.613281 25.210938 C 63.972656 24.84375 64.851562 23.523438 64.664062 22.125 C 64.476562 20.730469 63.285156 19.6875 61.875 19.6875 C 61.375 19.6875 60.886719 19.820312 60.457031 20.074219 C 60.464844 20.179688 60.46875 20.285156 60.46875 20.390625 C 60.46875 21.5625 60.050781 22.699219 59.285156 23.585938 Z M 56.25 22.378906 C 57.09375 22.082031 57.65625 21.285156 57.65625 20.390625 C 57.65625 19.496094 57.09375 18.699219 56.25 18.402344 Z M 53.4375 35.8125 L 53.4375 39.914062 L 55.304688 40.84375 L 57.265625 41.238281 L 60.46875 39.914062 L 60.46875 35.5 C 57.804688 33.363281 56.253906 30.132812 56.25 26.71875 L 56.25 29.53125 C 56.25 31.929688 55.226562 34.214844 53.4375 35.8125 Z M 67.5 57.65625 L 67.5 50.765625 C 67.492188 48.085938 65.601562 45.78125 62.976562 45.25 L 54.566406 43.566406 C 54.445312 43.542969 53.324219 43 53.324219 43 C 52.648438 47.074219 49.128906 50.058594 45 50.0625 C 40.871094 50.0625 37.347656 47.074219 36.675781 43 C 36.675781 43 35.554688 43.542969 35.433594 43.566406 L 27.023438 45.25 C 24.398438 45.78125 22.507812 48.085938 22.5 50.765625 L 22.5 57.65625 L 29.53125 57.65625 L 29.53125 54.84375 L 32.34375 54.84375 L 32.34375 57.65625 C 32.414062 57.65625 32.488281 57.660156 32.558594 57.671875 L 45.003906 59.585938 L 57.441406 57.671875 C 57.511719 57.660156 57.585938 57.65625 57.65625 57.65625 L 57.65625 54.84375 L 60.46875 54.84375 L 60.46875 57.65625 Z M 57.765625 60.46875 L 54.25 61.011719 L 67.5 63.046875 L 67.5 60.46875 Z M 26.472656 42.492188 L 30.9375 41.597656 L 30.9375 39.277344 C 27.457031 41.28125 23.167969 41.28125 19.6875 39.277344 L 19.6875 43.125 L 21.503906 45.546875 C 22.742188 43.96875 24.503906 42.886719 26.472656 42.492188 Z M 41.484375 46.011719 C 42.824219 47.085938 44.578125 47.488281 46.25 47.105469 C 47.921875 46.726562 49.328125 45.601562 50.070312 44.058594 C 50.4375 43.296875 50.625 42.464844 50.625 41.621094 L 50.625 37.484375 C 49.722656 37.804688 48.769531 37.96875 47.8125 37.96875 L 42.1875 37.96875 C 41.230469 37.96875 40.277344 37.804688 39.375 37.484375 L 39.375 41.621094 C 39.371094 43.332031 40.148438 44.949219 41.484375 46.011719 Z M 50.625 10.667969 L 53.4375 13.480469 L 53.4375 11.25 C 53.433594 9.460938 52.308594 7.871094 50.625 7.273438 Z M 41.363281 12.65625 L 36.925781 17.09375 L 37.976562 18.839844 C 38.039062 17.921875 38.691406 17.144531 39.585938 16.929688 C 40.484375 16.710938 41.417969 17.105469 41.894531 17.894531 C 42.367188 18.6875 42.273438 19.695312 41.660156 20.386719 C 41.046875 21.074219 40.058594 21.285156 39.214844 20.90625 L 40.171875 22.5 L 49.828125 22.5 L 50.785156 20.90625 C 49.945312 21.285156 48.953125 21.074219 48.34375 20.382812 C 47.730469 19.695312 47.636719 18.6875 48.109375 17.898438 C 48.585938 17.109375 49.515625 16.71875 50.414062 16.933594 C 51.308594 17.148438 51.960938 17.921875 52.023438 18.839844 L 53.074219 17.09375 L 48.636719 12.65625 Z M 36.5625 7.734375 C 36.5625 9.40625 38.183594 9.84375 38.671875 9.84375 L 47.8125 9.84375 L 47.8125 6.269531 C 47.234375 5.851562 46.539062 5.625 45.824219 5.625 L 38.671875 5.625 C 37.507812 5.625 36.5625 6.570312 36.5625 7.734375 Z M 36.5625 13.480469 L 37.527344 12.515625 C 37.195312 12.4375 36.871094 12.324219 36.5625 12.175781 Z M 36.5625 29.53125 C 36.566406 32.636719 39.082031 35.152344 42.1875 35.15625 L 47.8125 35.15625 C 50.917969 35.152344 53.433594 32.636719 53.4375 29.53125 L 53.4375 21.953125 L 51.832031 24.628906 C 51.578125 25.054688 51.117188 25.3125 50.625 25.3125 L 39.375 25.3125 C 38.882812 25.3125 38.421875 25.054688 38.167969 24.628906 L 36.5625 21.953125 Z M 33.75 36.972656 L 33.75 41.035156 L 34.695312 40.84375 L 36.5625 39.914062 L 36.5625 35.8125 C 36.128906 35.425781 35.738281 34.996094 35.394531 34.527344 C 34.957031 35.410156 34.402344 36.234375 33.75 36.972656 Z M 32.34375 20.390625 C 32.34375 21.285156 32.90625 22.082031 33.75 22.378906 L 33.75 18.402344 C 32.90625 18.699219 32.34375 19.496094 32.34375 20.390625 Z M 16.875 29.53125 C 16.875 34.191406 20.652344 37.96875 25.3125 37.96875 C 29.972656 37.96875 33.75 34.191406 33.75 29.53125 L 33.75 25.261719 C 33.257812 25.191406 32.78125 25.046875 32.332031 24.832031 C 32.214844 25.933594 31.265625 26.757812 30.160156 26.71875 C 29.054688 26.679688 28.164062 25.789062 28.125 24.683594 C 28.085938 23.578125 28.910156 22.628906 30.011719 22.511719 C 29.28125 20.980469 29.390625 19.183594 30.300781 17.75 L 29.527344 16.59375 C 27.980469 18.792969 25.941406 20.601562 23.570312 21.875 C 22.898438 22.234375 22.203125 22.546875 21.492188 22.8125 C 22.46875 23.410156 22.792969 24.683594 22.214844 25.675781 C 21.636719 26.664062 20.371094 27.015625 19.367188 26.457031 C 18.363281 25.902344 17.988281 24.644531 18.523438 23.628906 C 17.980469 23.726562 17.429688 23.800781 16.875 23.847656 Z M 19.722656 50.007812 C 19.773438 49.429688 19.886719 48.859375 20.054688 48.304688 L 17.859375 45.375 L 17.003906 45.804688 L 17.867188 51.859375 Z M 5.625 70.3125 L 15.46875 70.3125 C 15.660156 70.3125 15.847656 70.351562 16.023438 70.425781 L 19.6875 71.996094 L 19.6875 64.070312 L 15.34375 63.28125 L 5.625 63.28125 Z M 15.179688 78.75 L 20.726562 76.375 C 20.472656 76.019531 20.261719 75.636719 20.097656 75.234375 L 15.179688 73.125 L 5.625 73.125 L 5.625 75.9375 C 5.625 77.488281 6.886719 78.75 8.4375 78.75 Z M 29.53125 78.75 L 25.3125 78.75 C 24.605469 78.75 23.902344 78.617188 23.242188 78.355469 L 16.023438 81.449219 C 15.847656 81.523438 15.660156 81.5625 15.46875 81.5625 L 15.46875 84.375 L 29.53125 84.375 Z M 32.117188 75.9375 L 40.554688 73.125 L 32.117188 70.3125 L 22.5 70.3125 L 22.5 73.125 C 22.5 74.675781 23.761719 75.9375 25.3125 75.9375 Z M 57.65625 78.75 C 57.503906 78.75 57.355469 78.726562 57.210938 78.679688 L 45 74.605469 L 32.789062 78.679688 C 32.644531 78.726562 32.496094 78.75 32.34375 78.75 L 32.34375 84.375 L 57.65625 84.375 Z M 57.882812 75.9375 L 64.6875 75.9375 C 66.238281 75.9375 67.5 74.675781 67.5 73.125 L 67.5 65.894531 L 32.238281 60.46875 L 22.5 60.46875 L 22.5 67.5 L 32.34375 67.5 C 32.496094 67.5 32.644531 67.523438 32.789062 67.570312 Z M 78.355469 84.375 L 77.652344 81.5625 L 70.3125 81.5625 L 70.3125 78.75 L 76.949219 78.75 L 76.246094 75.9375 L 69.554688 75.9375 C 68.550781 77.675781 66.695312 78.75 64.6875 78.75 L 60.46875 78.75 L 60.46875 84.375 Z M 81.320312 57.65625 C 81.425781 58.121094 81.496094 58.589844 81.53125 59.0625 L 84.375 59.0625 L 84.375 57.65625 Z M 74.671875 62.4375 L 84.375 64.378906 L 84.375 61.875 L 77.484375 61.875 Z M 70.3125 64.433594 L 70.3125 71.328125 L 76.148438 73.125 L 81.5625 73.125 C 83.113281 73.125 84.375 71.863281 84.375 70.3125 L 84.375 67.246094 Z M 71.71875 40.449219 L 71.71875 37.152344 C 69.011719 38.242188 65.988281 38.242188 63.28125 37.152344 L 63.28125 40.449219 L 64.417969 42.722656 C 66.25 43.304688 67.828125 44.496094 68.894531 46.097656 Z M 74.417969 43 L 73.753906 42.667969 L 70.6875 48.796875 L 73.4375 50.859375 Z M 75.90625 27.386719 C 74.167969 28.378906 72.03125 28.371094 70.296875 27.363281 C 68.5625 26.355469 67.5 24.503906 67.5 22.5 C 67.496094 24.5 66.429688 26.351562 64.699219 27.359375 C 62.972656 28.367188 60.835938 28.382812 59.09375 27.398438 C 59.445312 31.78125 63.105469 35.160156 67.507812 35.160156 C 71.90625 35.15625 75.5625 31.769531 75.90625 27.386719 Z M 75.9375 22.5 C 75.9375 20.945312 74.679688 19.6875 73.125 19.6875 C 71.570312 19.6875 70.3125 20.945312 70.3125 22.5 C 70.3125 24.054688 71.570312 25.3125 73.125 25.3125 C 74.675781 25.3125 75.9375 24.050781 75.9375 22.5 Z M 77.34375 16.875 C 77.34375 12.757812 74.371094 9.242188 70.3125 8.554688 L 70.3125 11.996094 L 77.34375 17.855469 Z M 78.75 25.191406 C 79.59375 24.894531 80.15625 24.097656 80.15625 23.203125 C 80.15625 22.308594 79.59375 21.511719 78.75 21.214844 Z M 84.375 19.6875 C 84.371094 16.621094 82.386719 13.910156 79.464844 12.984375 C 79.921875 14.230469 80.15625 15.546875 80.15625 16.875 L 80.15625 18.757812 C 82.117188 19.6875 83.238281 21.792969 82.914062 23.9375 C 82.589844 26.082031 80.898438 27.761719 78.75 28.074219 L 78.75 29.53125 C 78.753906 32.871094 81.101562 35.75 84.375 36.421875 Z M 67.5 29.53125 C 66.722656 29.53125 66.09375 28.902344 66.09375 28.125 L 63.28125 28.125 C 63.28125 30.453125 65.171875 32.34375 67.5 32.34375 C 69.828125 32.34375 71.71875 30.453125 71.71875 28.125 L 68.90625 28.125 C 68.90625 28.902344 68.277344 29.53125 67.5 29.53125 Z M 45 52.871094 C 42.445312 52.867188 39.96875 52 37.972656 50.40625 L 36.214844 52.601562 C 41.0625 56.480469 47.886719 56.71875 52.996094 53.1875 L 51.398438 50.875 C 49.515625 52.167969 47.285156 52.863281 45 52.871094 Z M 49.847656 29.382812 L 48.589844 26.867188 C 46.933594 27.691406 45.109375 28.121094 43.261719 28.125 L 42.1875 28.125 L 42.1875 30.9375 L 43.261719 30.9375 C 45.546875 30.933594 47.800781 30.402344 49.847656 29.382812 Z M 49.847656 29.382812 "/>
</g>
</svg>
