<svg xmlns="http://www.w3.org/2000/svg" width="128" height="128" viewBox="0 0 128 128">
  <title>MULTIPLE</title>
  <g>
    <polygon points="108.937 74.749 91.826 83.584 90.122 84.464 88.417 83.584 71.306 74.749 90.122 65.034 108.937 74.749" fill="#fff69a"/>
    <polygon points="109 74.784 109 95.384 108.937 95.419 90.122 105.134 90.122 84.464 91.826 83.584 108.937 74.749 109 74.784" fill="#e87524"/>
    <polygon points="90.122 84.464 90.122 105.134 71.306 95.419 71.243 95.384 71.243 74.784 71.306 74.749 88.417 83.584 90.122 84.464" fill="#fcbc40"/>
    <polygon points="56.694 74.749 39.583 83.584 37.878 84.464 36.174 83.584 19.063 74.749 37.878 65.034 56.694 74.749" fill="#fff69a"/>
    <polygon points="56.757 74.784 56.757 95.384 56.694 95.419 37.878 105.134 37.878 84.464 39.583 83.584 56.694 74.749 56.757 74.784" fill="#e87524"/>
    <polygon points="37.878 84.464 37.878 105.134 19.063 95.419 19 95.384 19 74.784 19.063 74.749 36.174 83.584 37.878 84.464" fill="#fcbc40"/>
    <polygon points="82.816 31.761 65.704 40.596 64 41.476 62.296 40.596 45.184 31.761 64 22.045 82.816 31.761" fill="#fff69a"/>
    <polygon points="82.878 31.795 82.878 52.396 82.816 52.431 64 62.146 64 41.476 65.704 40.596 82.816 31.761 82.878 31.795" fill="#e87524"/>
    <polygon points="64 41.476 64 62.146 45.184 52.431 45.122 52.396 45.122 31.795 45.184 31.761 62.296 40.596 64 41.476" fill="#fcbc40"/>
  </g>
</svg>
