<svg xmlns="http://www.w3.org/2000/svg" width="128" height="128" viewBox="0 0 128 128">
  <title>OPERATOR</title>
  <g>
    <path d="M75.5,104.538a1.75,1.75,0,0,1,0-3.5H89.48a9.416,9.416,0,0,0,9.405-9.405V89.766a1.75,1.75,0,0,1,3.5,0v1.867a12.92,12.92,0,0,1-12.9,12.905Z" fill="#35b0cb"/>
    <path d="M35.75,59.422V86.348a3.681,3.681,0,0,1-3.682,3.682H29.74A10.74,10.74,0,0,1,19,79.29V66.49a10.714,10.714,0,0,1,4.88-9,10.57,10.57,0,0,1,5.85-1.75h2.338A3.681,3.681,0,0,1,35.75,59.422Z" fill="#d9176c"/>
    <path d="M109.01,66.49v12.8A10.744,10.744,0,0,1,98.26,90.03H95.942a3.681,3.681,0,0,1-3.682-3.682V59.422a3.681,3.681,0,0,1,3.682-3.682H98.26a10.755,10.755,0,0,1,10.75,10.75Z" fill="#d9176c"/>
    <path d="M104.12,54.97v2.51a10.677,10.677,0,0,0-5.86-1.74H97.12v-.77A29,29,0,0,0,68.15,26H59.84A28.993,28.993,0,0,0,30.88,54.97v.77H29.73a10.57,10.57,0,0,0-5.85,1.75V54.97A36.007,36.007,0,0,1,59.84,19h8.31A36.009,36.009,0,0,1,104.12,54.97Z" fill="#35b0cb"/>
    <path d="M69.371,108.92H58.629a6.15,6.15,0,0,1-6.132-6.132h0a6.15,6.15,0,0,1,6.132-6.132H69.371a6.15,6.15,0,0,1,6.132,6.132h0A6.151,6.151,0,0,1,69.371,108.92Z" fill="#fcbc40"/>
  </g>
</svg>
