<?xml version="1.0" encoding="UTF-8"?>
<svg xmlns="http://www.w3.org/2000/svg" xmlns:xlink="http://www.w3.org/1999/xlink" width="90px" height="90px" viewBox="0 0 90 90" version="1.1">
<g id="surface1">
<path style=" stroke:none;fill-rule:nonzero;fill:rgb(52.54902%,71.372549%,23.137255%);fill-opacity:1;" d="M 68.90625 4.21875 L 85.78125 4.21875 L 85.78125 40.78125 L 68.90625 40.78125 Z M 68.90625 4.21875 "/>
<path style=" stroke:none;fill-rule:nonzero;fill:rgb(99.215686%,78.431373%,63.529412%);fill-opacity:1;" d="M 68.90625 4.21875 L 8.4375 4.21875 C 6.109375 4.21875 4.21875 6.109375 4.21875 8.4375 C 4.21875 10.765625 6.109375 12.65625 8.4375 12.65625 L 29.53125 12.65625 L 29.53125 18.28125 L 8.4375 18.28125 C 6.109375 18.28125 4.21875 20.171875 4.21875 22.5 C 4.21875 24.828125 6.109375 26.71875 8.4375 26.71875 L 29.53125 26.71875 L 29.53125 32.34375 L 8.4375 32.34375 C 6.109375 32.34375 4.21875 34.234375 4.21875 36.5625 C 4.21875 38.890625 6.109375 40.78125 8.4375 40.78125 L 28.78125 40.78125 C 24.992188 48.066406 26.527344 56.980469 32.527344 62.582031 C 35.660156 65.507812 40.78125 63.246094 40.78125 58.957031 C 40.777344 57.59375 40.214844 56.292969 39.21875 55.359375 C 36.695312 52.988281 35.878906 49.3125 37.160156 46.09375 C 38.445312 42.875 41.5625 40.765625 45.027344 40.777344 C 48.492188 40.789062 51.597656 42.917969 52.859375 46.144531 C 54.121094 49.371094 53.28125 53.042969 50.738281 55.398438 C 49.761719 56.324219 49.210938 57.613281 49.21875 58.957031 C 49.21875 63.246094 54.339844 65.507812 57.472656 62.582031 C 63.472656 56.980469 65.007812 48.066406 61.21875 40.78125 L 68.90625 40.78125 Z M 68.90625 4.21875 "/>
<path style=" stroke:none;fill-rule:nonzero;fill:rgb(42.352941%,60%,16.470588%);fill-opacity:1;" d="M 80.15625 32.34375 C 80.15625 33.898438 78.898438 35.15625 77.34375 35.15625 C 75.789062 35.15625 74.53125 33.898438 74.53125 32.34375 C 74.53125 30.789062 75.789062 29.53125 77.34375 29.53125 C 78.898438 29.53125 80.15625 30.789062 80.15625 32.34375 Z M 80.15625 32.34375 "/>
<path style=" stroke:none;fill-rule:nonzero;fill:rgb(47.058824%,65.490196%,19.607843%);fill-opacity:1;" d="M 46.40625 70.3125 L 43.59375 70.3125 L 40.78125 60.46875 L 49.21875 60.46875 Z M 46.40625 70.3125 "/>
<path style=" stroke:none;fill-rule:nonzero;fill:rgb(52.54902%,71.372549%,23.137255%);fill-opacity:1;" d="M 53.265625 85.78125 L 36.734375 85.78125 C 35.085938 85.78125 33.75 84.445312 33.75 82.796875 C 33.75 82.007812 34.0625 81.25 34.625 80.6875 L 36.5625 78.75 L 36.5625 74.53125 C 36.5625 69.871094 40.339844 66.09375 45 66.09375 C 49.660156 66.09375 53.4375 69.871094 53.4375 74.53125 L 53.4375 78.75 L 55.375 80.6875 C 55.9375 81.25 56.25 82.007812 56.25 82.796875 C 56.25 84.445312 54.914062 85.78125 53.265625 85.78125 Z M 53.265625 85.78125 "/>
<path style=" stroke:none;fill-rule:nonzero;fill:rgb(0%,0%,0%);fill-opacity:1;" d="M 85.78125 2.8125 L 18.28125 2.8125 L 18.28125 5.625 L 67.5 5.625 L 67.5 39.375 L 61.21875 39.375 C 60.730469 39.375 60.273438 39.632812 60.019531 40.050781 C 59.761719 40.472656 59.746094 40.996094 59.972656 41.429688 C 61.230469 43.835938 61.882812 46.507812 61.875 49.21875 C 61.867188 53.894531 59.925781 58.359375 56.515625 61.554688 C 55.511719 62.519531 54.019531 62.773438 52.753906 62.195312 C 51.457031 61.644531 50.617188 60.367188 50.625 58.957031 C 50.617188 58.003906 51.003906 57.089844 51.699219 56.429688 C 53.699219 54.566406 54.839844 51.953125 54.84375 49.21875 C 54.84375 46.542969 53.753906 43.980469 51.824219 42.125 C 49.894531 40.265625 47.289062 39.277344 44.613281 39.382812 C 39.613281 39.574219 35.46875 43.632812 35.171875 48.625 C 34.996094 51.542969 36.125 54.386719 38.253906 56.386719 C 38.964844 57.050781 39.371094 57.984375 39.375 58.957031 C 39.382812 60.367188 38.542969 61.644531 37.246094 62.195312 C 35.980469 62.773438 34.488281 62.519531 33.484375 61.554688 C 30.074219 58.359375 28.132812 53.894531 28.125 49.21875 C 28.117188 46.507812 28.769531 43.835938 30.027344 41.429688 C 30.253906 40.996094 30.238281 40.472656 29.980469 40.050781 C 29.726562 39.632812 29.269531 39.375 28.78125 39.375 L 8.4375 39.375 C 6.882812 39.375 5.625 38.117188 5.625 36.5625 C 5.625 35.007812 6.882812 33.75 8.4375 33.75 L 29.53125 33.75 C 30.308594 33.75 30.9375 33.121094 30.9375 32.34375 L 30.9375 26.71875 C 30.9375 25.941406 30.308594 25.3125 29.53125 25.3125 L 8.4375 25.3125 C 6.882812 25.3125 5.625 24.054688 5.625 22.5 C 5.625 20.945312 6.882812 19.6875 8.4375 19.6875 L 29.53125 19.6875 C 30.308594 19.6875 30.9375 19.058594 30.9375 18.28125 L 30.9375 12.65625 C 30.9375 11.878906 30.308594 11.25 29.53125 11.25 L 8.4375 11.25 C 6.882812 11.25 5.625 9.992188 5.625 8.4375 C 5.625 6.882812 6.882812 5.625 8.4375 5.625 L 15.46875 5.625 L 15.46875 2.8125 L 8.4375 2.8125 C 5.332031 2.8125 2.8125 5.332031 2.8125 8.4375 C 2.8125 11.542969 5.332031 14.0625 8.4375 14.0625 L 28.125 14.0625 L 28.125 16.875 L 8.4375 16.875 C 5.332031 16.875 2.8125 19.394531 2.8125 22.5 C 2.8125 25.605469 5.332031 28.125 8.4375 28.125 L 28.125 28.125 L 28.125 30.9375 L 8.4375 30.9375 C 5.332031 30.9375 2.8125 33.457031 2.8125 36.5625 C 2.8125 39.667969 5.332031 42.1875 8.4375 42.1875 L 26.609375 42.1875 C 23.75 49.671875 25.710938 58.140625 31.566406 63.609375 C 33.386719 65.335938 36.074219 65.796875 38.367188 64.773438 C 39.042969 64.480469 39.664062 64.074219 40.203125 63.570312 L 40.792969 65.632812 C 37.355469 67.261719 35.160156 70.726562 35.15625 74.53125 L 35.15625 78.167969 L 33.628906 79.695312 C 32.375 80.949219 32 82.835938 32.679688 84.476562 C 33.355469 86.117188 34.957031 87.1875 36.734375 87.1875 L 53.265625 87.1875 C 55.042969 87.1875 56.644531 86.117188 57.320312 84.476562 C 58 82.835938 57.625 80.949219 56.371094 79.695312 L 54.84375 78.167969 L 54.84375 74.53125 C 54.839844 70.726562 52.644531 67.261719 49.207031 65.632812 L 49.792969 63.570312 C 50.335938 64.074219 50.957031 64.480469 51.632812 64.773438 C 52.4375 65.125 53.300781 65.308594 54.179688 65.3125 C 55.761719 65.308594 57.285156 64.699219 58.433594 63.609375 C 64.289062 58.140625 66.25 49.671875 63.390625 42.1875 L 85.78125 42.1875 C 86.558594 42.1875 87.1875 41.558594 87.1875 40.78125 L 87.1875 33.75 L 84.375 33.75 L 84.375 39.375 L 70.3125 39.375 L 70.3125 5.625 L 84.375 5.625 L 84.375 30.9375 L 87.1875 30.9375 L 87.1875 4.21875 C 87.1875 3.441406 86.558594 2.8125 85.78125 2.8125 Z M 52.03125 74.53125 L 52.03125 78.75 C 52.03125 79.121094 52.179688 79.480469 52.441406 79.746094 L 54.382812 81.683594 C 54.832031 82.132812 54.96875 82.8125 54.722656 83.402344 C 54.480469 83.992188 53.90625 84.375 53.265625 84.375 L 36.734375 84.375 C 36.09375 84.375 35.519531 83.992188 35.277344 83.402344 C 35.03125 82.8125 35.167969 82.132812 35.617188 81.683594 L 37.558594 79.746094 C 37.820312 79.480469 37.96875 79.121094 37.96875 78.75 L 37.96875 74.53125 C 37.96875 70.648438 41.117188 67.5 45 67.5 C 48.882812 67.5 52.03125 70.648438 52.03125 74.53125 Z M 42.644531 61.875 L 47.355469 61.875 L 46.515625 64.804688 C 45.511719 64.648438 44.488281 64.648438 43.484375 64.804688 Z M 49.78125 54.367188 C 48.519531 55.558594 47.804688 57.222656 47.8125 58.957031 C 47.8125 58.992188 47.816406 59.027344 47.816406 59.0625 L 42.183594 59.0625 C 42.183594 59.027344 42.1875 58.992188 42.1875 58.957031 C 42.183594 57.207031 41.457031 55.539062 40.183594 54.335938 C 38.078125 52.359375 37.398438 49.296875 38.46875 46.613281 C 39.535156 43.933594 42.136719 42.175781 45.023438 42.183594 C 47.910156 42.195312 50.5 43.96875 51.550781 46.660156 C 52.601562 49.347656 51.898438 52.40625 49.78125 54.371094 Z M 73.125 32.34375 C 73.125 34.671875 75.015625 36.5625 77.34375 36.5625 C 79.671875 36.5625 81.5625 34.671875 81.5625 32.34375 C 81.5625 30.015625 79.671875 28.125 77.34375 28.125 C 75.015625 28.128906 73.128906 30.015625 73.125 32.34375 Z M 78.75 32.34375 C 78.75 33.121094 78.121094 33.75 77.34375 33.75 C 76.566406 33.75 75.9375 33.121094 75.9375 32.34375 C 75.9375 31.566406 76.566406 30.9375 77.34375 30.9375 C 78.121094 30.9375 78.75 31.566406 78.75 32.34375 Z M 45.332031 71.71875 L 47.8125 71.71875 L 47.8125 74.53125 L 45.332031 74.53125 C 45.179688 74.53125 45.042969 74.636719 45.007812 74.785156 C 44.972656 74.9375 45.046875 75.089844 45.183594 75.160156 L 46.074219 75.605469 C 47.378906 76.257812 48.0625 77.722656 47.726562 79.140625 C 47.394531 80.558594 46.125 81.5625 44.667969 81.5625 L 42.1875 81.5625 L 42.1875 78.75 L 44.667969 78.75 C 44.820312 78.75 44.957031 78.644531 44.992188 78.496094 C 45.027344 78.34375 44.953125 78.191406 44.816406 78.121094 L 43.925781 77.675781 C 42.621094 77.023438 41.9375 75.558594 42.273438 74.140625 C 42.605469 72.722656 43.875 71.71875 45.332031 71.71875 Z M 9.84375 73.125 L 12.65625 73.125 L 12.65625 75.9375 L 9.84375 75.9375 Z M 28.125 75.9375 L 15.46875 75.9375 L 15.46875 73.125 L 28.125 73.125 Z M 14.691406 60.617188 L 28.753906 67.648438 L 27.496094 70.164062 L 13.433594 63.132812 Z M 27.601562 80.257812 L 28.648438 82.867188 L 14.585938 88.492188 L 13.539062 85.882812 Z M 77.34375 73.125 L 80.15625 73.125 L 80.15625 75.9375 L 77.34375 75.9375 Z M 74.53125 75.9375 L 61.875 75.9375 L 61.875 73.125 L 74.53125 73.125 Z M 75.308594 60.617188 L 76.566406 63.132812 L 62.503906 70.164062 L 61.246094 67.648438 Z M 62.398438 80.257812 L 76.460938 85.882812 L 75.414062 88.492188 L 61.351562 82.867188 Z M 62.398438 80.257812 "/>
</g>
</svg>
